<svg xmlns="http://www.w3.org/2000/svg" xmlns:xlink="http://www.w3.org/1999/xlink" width="1366" zoomAndPan="magnify" viewBox="0 0 1024.5 576" height="768" preserveAspectRatio="xMidYMid meet" version="1.0"><defs><clipPath id="id1"><path d="M 0 0.140625 L 1024 0.140625 L 1024 575.859375 L 0 575.859375 Z M 0 0.140625 " clip-rule="nonzero"/></clipPath><clipPath id="id2"><path d="M 37 0.140625 L 1024 0.140625 L 1024 575.859375 L 37 575.859375 Z M 37 0.140625 " clip-rule="nonzero"/></clipPath><clipPath id="id3"><path d="M 924.664062 -319.226562 L 1412.039062 168.148438 L 299.40625 1280.78125 L -187.96875 793.40625 Z M 924.664062 -319.226562 " clip-rule="nonzero"/></clipPath><clipPath id="id4"><path d="M 924.664062 -319.226562 L 1412.039062 168.148438 L 299.40625 1280.78125 L -187.96875 793.40625 Z M 924.664062 -319.226562 " clip-rule="nonzero"/></clipPath><clipPath id="id5"><path d="M 741 143 L 748 143 L 748 159 L 741 159 Z M 741 143 " clip-rule="nonzero"/></clipPath><clipPath id="id6"><path d="M 924.664062 -319.226562 L 1412.039062 168.148438 L 299.40625 1280.78125 L -187.96875 793.40625 Z M 924.664062 -319.226562 " clip-rule="nonzero"/></clipPath><clipPath id="id7"><path d="M 924.664062 -319.226562 L 1412.039062 168.148438 L 299.40625 1280.78125 L -187.96875 793.40625 Z M 924.664062 -319.226562 " clip-rule="nonzero"/></clipPath><clipPath id="id8"><path d="M 969 480 L 974 480 L 974 487 L 969 487 Z M 969 480 " clip-rule="nonzero"/></clipPath><clipPath id="id9"><path d="M 924.664062 -319.226562 L 1412.039062 168.148438 L 299.40625 1280.78125 L -187.96875 793.40625 Z M 924.664062 -319.226562 " clip-rule="nonzero"/></clipPath><clipPath id="id10"><path d="M 924.664062 -319.226562 L 1412.039062 168.148438 L 299.40625 1280.78125 L -187.96875 793.40625 Z M 924.664062 -319.226562 " clip-rule="nonzero"/></clipPath></defs><g clip-path="url(#id1)"><path fill="rgb(100%, 100%, 100%)" d="M 0 0.140625 L 1024.5 0.140625 L 1024.5 576.140625 L 0 576.140625 Z M 0 0.140625 " fill-opacity="1" fill-rule="nonzero"/><path fill="rgb(0%, 0%, 0%)" d="M 0 0.140625 L 1024.5 0.140625 L 1024.5 576.140625 L 0 576.140625 Z M 0 0.140625 " fill-opacity="1" fill-rule="nonzero"/></g><g clip-path="url(#id2)"><g clip-path="url(#id3)"><g clip-path="url(#id4)"><path fill="rgb(36.468506%, 0%, 29.798889%)" d="M 649.4375 677.367188 C 642.773438 676.894531 642.117188 676.074219 642.972656 670.316406 C 643.128906 667.804688 643.109375 665.292969 642.917969 662.78125 C 638.3125 665.144531 636.523438 670.011719 631.917969 667.683594 C 628.777344 666.09375 625.488281 664.773438 622.21875 663.492188 C 617.613281 661.6875 614.148438 657.824219 608.546875 657.246094 C 606.636719 656.765625 604.910156 655.910156 603.367188 654.683594 C 601.824219 653.460938 600.601562 651.96875 599.699219 650.21875 C 599.21875 649.28125 598.636719 648.410156 597.960938 647.601562 C 597.289062 646.792969 596.53125 646.066406 595.695312 645.425781 C 594.863281 644.78125 593.964844 644.238281 593.011719 643.792969 C 592.058594 643.347656 591.066406 643.011719 590.035156 642.785156 C 586.210938 641.597656 582.632812 639.890625 579.300781 637.671875 C 575.96875 635.453125 573.015625 632.808594 570.445312 629.734375 C 569 628.1875 567.3125 626.964844 565.390625 626.070312 C 561.136719 624.375 556.546875 623.277344 556.222656 617.480469 C 551.210938 617.152344 551.835938 613.4375 551.203125 610.023438 C 550.871094 609.027344 550.363281 608.132812 549.6875 607.332031 C 549.007812 606.535156 548.207031 605.886719 547.28125 605.398438 C 542.828125 603.191406 538.6875 600.496094 534.867188 597.316406 C 531.042969 594.136719 527.644531 590.558594 524.660156 586.582031 C 521.703125 582.191406 517.085938 582.296875 512.101562 586.160156 C 508.066406 589.277344 504.179688 592.585938 500.328125 595.9375 C 487.882812 606.769531 475.414062 617.582031 463.121094 628.578125 C 460.0625 631.753906 457.21875 635.109375 454.582031 638.648438 C 462.308594 641.210938 468.71875 643.390625 475.175781 645.449219 C 486.871094 649.195312 498.675781 652.613281 510.261719 656.679688 C 514.773438 658.460938 518.992188 660.785156 522.910156 663.648438 C 523.921875 664.621094 525.015625 665.492188 526.195312 666.261719 C 527.371094 667.027344 528.613281 667.675781 529.914062 668.203125 C 531.214844 668.730469 532.558594 669.128906 533.9375 669.402344 C 535.316406 669.671875 536.707031 669.8125 538.113281 669.816406 C 538.855469 669.722656 539.785156 671.347656 540.644531 672.199219 C 538.03125 673.441406 535.417969 674.6875 533.082031 675.796875 L 534.347656 686.679688 L 542.660156 689.476562 L 540.398438 671.941406 C 542.9375 672.496094 545.429688 673.207031 547.878906 674.078125 C 548.410156 674.210938 548.921875 674.394531 549.414062 674.628906 C 549.910156 674.863281 550.375 675.144531 550.8125 675.46875 C 551.25 675.796875 551.652344 676.164062 552.019531 676.566406 C 552.386719 676.972656 552.710938 677.410156 552.988281 677.878906 C 553.269531 678.351562 553.5 678.84375 553.683594 679.359375 C 553.867188 679.871094 553.996094 680.402344 554.074219 680.941406 C 554.152344 681.484375 554.179688 682.027344 554.148438 682.574219 C 554.121094 683.117188 554.039062 683.65625 553.902344 684.1875 C 551.984375 685.109375 550.066406 686.023438 548.117188 686.949219 L 563 700.851562 C 566.753906 694.800781 566.425781 693.503906 560.945312 690.007812 C 558.378906 688.148438 555.949219 686.128906 553.648438 683.949219 C 557.058594 684.5 560.355469 685.449219 563.535156 686.792969 C 566.71875 688.140625 569.695312 689.84375 572.464844 691.910156 C 574.910156 694.109375 579.761719 693.628906 584.074219 694.464844 L 583.460938 702.402344 C 591.625 703.992188 602.175781 702.777344 600.0625 716.398438 C 597.082031 714.753906 594.015625 711.417969 590.445312 716.398438 C 595.988281 719.726562 597.460938 729.121094 607.535156 726.597656 C 607.714844 722.050781 599.960938 716.414062 610.308594 712.757812 C 614.847656 717.296875 619.757812 722.410156 624.964844 727.191406 C 629.320312 731.183594 634.039062 734.765625 638.617188 738.511719 C 640.152344 739.464844 641.5625 740.582031 642.835938 741.867188 C 649.765625 751.179688 657.203125 760.207031 663.136719 770.117188 C 667.800781 778.832031 671.902344 787.804688 675.441406 797.035156 C 677.503906 801.726562 679.277344 806.542969 681.304688 811.257812 C 682.210938 813.332031 682.785156 815.496094 683.03125 817.75 C 683.277344 820 683.183594 822.238281 682.753906 824.460938 C 682.636719 825.425781 682.390625 826.359375 682.011719 827.257812 C 681.632812 828.152344 681.136719 828.980469 680.523438 829.738281 C 679.910156 830.492188 679.203125 831.148438 678.40625 831.703125 C 677.605469 832.261719 676.742188 832.695312 675.820312 833.003906 C 668.570312 835.980469 662.082031 837.832031 655.1875 831.40625 C 650.300781 827.945312 645.183594 824.871094 639.835938 822.179688 C 636.492188 819.902344 634.007812 816.253906 630.636719 814.101562 C 625.953125 810.644531 620.824219 808.0625 615.261719 806.347656 C 608.351562 804.78125 601.789062 804.421875 599.296875 796.027344 C 598.730469 794.113281 595.304688 792.539062 592.917969 791.785156 C 587.773438 790.101562 581.96875 790.617188 578.894531 784.171875 C 577.832031 781.957031 572.203125 782.316406 570.109375 780.136719 C 566.25 776.636719 562.003906 773.695312 557.371094 771.316406 C 552.734375 768.9375 547.871094 767.203125 542.777344 766.109375 C 537.894531 764.609375 533.28125 762.523438 528.933594 759.84375 C 517.527344 752.796875 504.238281 748.734375 494.964844 738.167969 C 493.074219 736.019531 489.410156 735.476562 486.652344 734.011719 C 474.191406 726.820312 462.980469 718.03125 453.027344 707.644531 C 446.558594 702.359375 439.667969 697.699219 432.351562 693.667969 C 426.390625 689.714844 420.4375 685.730469 413.453125 681.078125 C 398.539062 692.949219 385.078125 708.128906 369.96875 721.472656 C 354.707031 734.964844 340.726562 749.949219 326.148438 764.3125 C 326.609375 765.210938 327.167969 766.042969 327.832031 766.800781 C 328.496094 767.5625 329.242188 768.230469 330.070312 768.804688 C 330.902344 769.382812 331.789062 769.847656 332.730469 770.203125 C 333.675781 770.558594 334.652344 770.792969 335.652344 770.910156 C 350.484375 775.84375 365.417969 780.539062 380.042969 786.042969 C 388.65625 789.3125 396.722656 794.058594 405.164062 797.847656 C 410.324219 800.1875 415.613281 802.195312 421.03125 803.863281 C 429.0625 806.3125 436.371094 809.285156 437.304688 819.644531 C 443.390625 813.066406 443.542969 812.820312 450.34375 816.746094 C 456.488281 819.945312 462.199219 823.789062 467.476562 828.277344 C 472.660156 832.472656 478.464844 835.453125 484.898438 837.214844 C 489.304688 839.046875 493.261719 841.578125 496.769531 844.8125 C 502.070312 849.128906 508.425781 852.140625 514.070312 856.082031 C 521.445312 861.238281 528.449219 866.925781 535.84375 872.054688 C 540.023438 875.578125 544.707031 878.214844 549.890625 879.953125 C 555.265625 880.34375 560.5625 879.867188 565.78125 878.53125 C 568.523438 878.171875 571.226562 877.507812 574.769531 876.828125 L 573.730469 889.921875 C 581.140625 898.539062 587.0625 906.738281 583.660156 918.882812 L 576.660156 916.8125 C 570.5625 920.570312 584.035156 926.925781 573.285156 930.324219 C 566.253906 925.90625 559.511719 921.085938 553.054688 915.867188 C 552.34375 915.121094 551.582031 914.4375 550.769531 913.808594 C 549.953125 913.183594 549.097656 912.621094 548.195312 912.128906 C 547.296875 911.632812 546.363281 911.210938 545.398438 910.859375 C 544.433594 910.507812 543.445312 910.230469 542.4375 910.03125 C 541.429688 909.832031 540.414062 909.710938 539.386719 909.667969 C 538.359375 909.625 537.335938 909.660156 536.316406 909.777344 C 535.292969 909.890625 534.285156 910.082031 533.296875 910.351562 C 532.304688 910.621094 531.339844 910.964844 530.398438 911.382812 L 533.285156 903.578125 L 525.628906 901.746094 L 522.917969 910.601562 C 520.835938 911.617188 518.3125 912.890625 515.773438 914.144531 L 515.144531 913.417969 L 519.53125 908.273438 C 517.957031 905.574219 516.503906 903.585938 513.300781 906.371094 C 511.742188 907.730469 509.613281 908.425781 508.027344 909.753906 C 507 910.644531 505.890625 911.417969 504.699219 912.070312 C 503.507812 912.726562 502.261719 913.25 500.960938 913.644531 C 499.660156 914.035156 498.332031 914.289062 496.980469 914.398438 C 495.625 914.511719 494.273438 914.484375 492.925781 914.308594 C 475.929688 912.171875 458.902344 910.03125 442.121094 906.683594 C 440.871094 906.597656 439.65625 906.335938 438.480469 905.898438 C 437.304688 905.464844 436.214844 904.871094 435.210938 904.125 C 434.203125 903.375 433.324219 902.503906 432.570312 901.503906 C 431.816406 900.5 431.214844 899.414062 430.773438 898.242188 C 428.898438 892.328125 423.496094 890.742188 417.414062 893.4375 C 416.089844 894.109375 414.683594 894.484375 413.199219 894.566406 C 411.714844 894.644531 410.277344 894.421875 408.886719 893.898438 C 401.023438 890.9375 393.175781 887.953125 385.367188 884.859375 C 384.328125 884.4375 382.867188 883.429688 382.773438 882.542969 C 381.949219 875.757812 376.015625 875.410156 371.511719 873.75 C 369.03125 873.058594 366.710938 872.015625 364.546875 870.621094 C 362.386719 869.222656 360.480469 867.535156 358.832031 865.558594 C 355.066406 860.394531 346.875 859.546875 345.652344 851.910156 C 345.601562 851.601562 344.648438 851.226562 344.105469 851.214844 C 336.066406 851.058594 332.410156 844.523438 327.429688 839.886719 C 324.796875 837.433594 320.828125 835.675781 319.511719 832.695312 C 314.0625 820.34375 300.53125 815.253906 294.386719 803.714844 C 293.539062 802.117188 292.722656 800.496094 291.621094 798.382812 C 282.195312 803.859375 273.460938 810.273438 265.410156 817.625 C 258.132812 824.328125 253.171875 833.496094 243.792969 837.960938 C 242.933594 838.300781 242.238281 838.847656 241.714844 839.613281 C 236.328125 849.765625 225.726562 854.800781 218.601562 863.292969 C 211.644531 871.585938 204.488281 879.777344 196.765625 887.351562 C 188.828125 895.101562 180.476562 902.382812 171.71875 909.191406 C 167.992188 911.851562 163.863281 913.488281 159.328125 914.105469 C 157.851562 914.335938 156.421875 914.722656 155.035156 915.265625 C 153.644531 915.808594 152.332031 916.496094 151.089844 917.328125 C 149.851562 918.15625 148.71875 919.113281 147.6875 920.191406 C 146.65625 921.265625 145.753906 922.445312 144.980469 923.71875 C 141.863281 927.703125 138.53125 931.496094 134.984375 935.101562 C 133.023438 930.351562 135.570312 928.855469 137.128906 926.972656 C 141.878906 921.261719 141.914062 920.191406 137.621094 912.503906 C 133.378906 913.839844 133.492188 917.296875 134.109375 920.503906 C 134.894531 924.601562 133.234375 926.722656 128.875 928.414062 L 128.167969 921.113281 L 126.402344 920.488281 L 121.214844 928.804688 C 130.707031 934.136719 132.328125 940.429688 125.980469 948.09375 C 120.480469 954.722656 113.945312 960.488281 108.011719 966.773438 C 105.167969 969.820312 102.5 973.011719 100.007812 976.351562 C 94.144531 984.125 88.800781 992.335938 82.527344 999.761719 C 76.96875 1006.390625 70.425781 1012.171875 64.285156 1018.289062 C 63.753906 1018.945312 63.128906 1019.5 62.414062 1019.953125 C 61.699219 1020.402344 60.933594 1020.730469 60.109375 1020.933594 C 59.289062 1021.136719 58.457031 1021.203125 57.617188 1021.132812 C 56.773438 1021.0625 55.964844 1020.863281 55.1875 1020.53125 C 52.816406 1019.695312 49.839844 1020.664062 47.15625 1020.496094 C 38.820312 1019.984375 35.050781 1014.929688 38 1007.210938 C 38.675781 1005.238281 39.636719 1003.414062 40.878906 1001.738281 C 42.121094 1000.0625 43.585938 998.613281 45.277344 997.390625 C 56.722656 989.441406 66.921875 980.132812 75.882812 969.46875 C 84.246094 960.847656 92.109375 951.726562 100.722656 943.378906 C 105.21875 939.417969 108.886719 934.796875 111.726562 929.519531 C 114.011719 925.261719 117.054688 921.640625 120.859375 918.65625 C 127.28125 913.253906 132.992188 907.183594 138 900.449219 C 142.191406 895.339844 146.917969 890.789062 152.183594 886.789062 C 157.707031 883.011719 162.316406 878.332031 166.007812 872.75 C 166.296875 872.226562 166.460938 871.464844 166.914062 871.222656 C 175.101562 866.796875 176.894531 856.617188 185.445312 851.839844 C 191.421875 847.613281 196.25 842.332031 199.921875 835.996094 C 209.089844 823.289062 220.003906 812.316406 232.664062 803.082031 C 243.890625 794.558594 254.0625 784.632812 264.660156 775.285156 C 266.664062 773.519531 268.472656 771.523438 270.777344 769.230469 C 266.441406 761.988281 262.023438 754.910156 257.898438 747.664062 C 251.953125 737.230469 246.300781 726.628906 240.382812 716.179688 C 236.089844 708.613281 230.929688 701.476562 227.296875 693.621094 C 222.261719 682.730469 218.292969 671.34375 213.863281 660.171875 C 209.894531 650.164062 206.046875 640.113281 201.933594 630.167969 C 196.878906 618.847656 193.6875 607.027344 192.359375 594.707031 C 192.285156 593.207031 191.984375 591.757812 191.449219 590.355469 C 190.917969 588.953125 190.179688 587.667969 189.238281 586.5 C 188.078125 585.011719 187.074219 583.429688 186.21875 581.75 C 185.363281 580.070312 184.675781 578.324219 184.15625 576.511719 C 183.632812 574.699219 183.292969 572.855469 183.125 570.976562 C 182.960938 569.097656 182.972656 567.222656 183.167969 565.347656 C 183.027344 562.332031 183.671875 559.894531 181.421875 556.609375 C 179.054688 553.175781 179.804688 547.371094 179.832031 542.613281 C 180.066406 540.839844 180.007812 539.082031 179.652344 537.328125 C 179.296875 535.578125 178.667969 533.933594 177.761719 532.394531 C 175.90625 529.210938 175.03125 525.773438 175.136719 522.089844 C 174.621094 508.832031 174.921875 495.589844 176.03125 482.367188 C 176.730469 474.785156 177.953125 467.285156 179.691406 459.871094 C 181.429688 452.457031 183.675781 445.199219 186.421875 438.09375 C 189.167969 430.992188 192.390625 424.113281 196.09375 417.453125 C 199.792969 410.796875 203.9375 404.429688 208.523438 398.347656 C 208.984375 397.835938 209.46875 397.347656 209.976562 396.882812 C 210.484375 396.417969 211.015625 395.980469 211.566406 395.570312 C 212.121094 395.15625 212.691406 394.769531 213.277344 394.414062 C 213.867188 394.058594 214.472656 393.730469 215.09375 393.429688 C 215.714844 393.132812 216.347656 392.867188 216.996094 392.628906 C 217.640625 392.390625 218.296875 392.1875 218.964844 392.015625 C 219.632812 391.84375 220.304688 391.703125 220.984375 391.59375 C 221.667969 391.488281 222.351562 391.414062 223.039062 391.375 C 223.726562 391.332031 224.414062 391.328125 225.101562 391.351562 C 225.789062 391.378906 226.472656 391.441406 227.15625 391.53125 C 227.839844 391.625 228.515625 391.75 229.183594 391.910156 C 229.855469 392.070312 230.515625 392.261719 231.167969 392.484375 C 231.820312 392.707031 232.457031 392.960938 233.085938 393.246094 C 233.710938 393.53125 234.324219 393.847656 234.917969 394.191406 C 235.515625 394.539062 236.09375 394.910156 236.652344 395.3125 C 237.210938 395.714844 237.75 396.140625 238.269531 396.59375 C 238.945312 397.234375 239.382812 398.003906 239.582031 398.914062 C 243.355469 412.234375 247.515625 425.476562 250.722656 438.910156 C 251.546875 443.1875 252.824219 447.320312 254.554688 451.320312 C 256.28125 455.316406 258.417969 459.078125 260.964844 462.609375 C 262.664062 465.121094 263.769531 467.871094 264.277344 470.859375 C 265.765625 477.84375 266.628906 484.972656 268.140625 491.945312 C 270.914062 504.878906 273.964844 517.753906 276.855469 530.667969 C 278.300781 537.128906 279.246094 543.75 281.109375 550.070312 C 285.90625 566.484375 284.523438 583.410156 286.050781 600.113281 C 286.816406 608.449219 289.113281 616.632812 290.644531 624.898438 C 291.136719 627.527344 291.375 630.203125 291.714844 632.859375 C 292.210938 640.980469 293.308594 649.019531 295.003906 656.972656 C 299.597656 673.078125 298.191406 689.871094 301.792969 706.066406 C 302.230469 711.734375 302.136719 717.398438 301.519531 723.050781 C 301.628906 728.046875 302.371094 733.03125 302.875 738.398438 C 305.132812 738.058594 306.6875 738.3125 307.34375 737.652344 C 312.59375 732.40625 317.558594 726.863281 322.875 721.695312 C 330.390625 714.386719 338.191406 707.375 345.769531 700.128906 C 350.964844 695.15625 356.136719 690.1875 361.015625 684.878906 C 364.855469 680.261719 369.453125 676.59375 374.808594 673.875 C 379.457031 670.507812 383.296875 666.386719 386.335938 661.515625 C 387.324219 660.367188 387.863281 658.917969 388.730469 657.691406 C 393.132812 651.492188 393.101562 651.535156 388.710938 645.273438 C 374.058594 624.398438 358.585938 604.035156 345.105469 582.429688 C 334.28125 565.972656 326.195312 548.269531 320.84375 529.308594 C 319.5625 524.296875 314.703125 519.703125 319.015625 514.859375 C 317.851562 513.390625 316.773438 511.859375 315.789062 510.265625 C 314.804688 508.671875 313.914062 507.027344 313.117188 505.328125 C 312.324219 503.632812 311.632812 501.894531 311.039062 500.117188 C 310.449219 498.339844 309.960938 496.53125 309.582031 494.699219 C 309.199219 492.863281 308.925781 491.011719 308.761719 489.144531 C 308.597656 487.277344 308.539062 485.410156 308.59375 483.535156 C 308.644531 481.660156 308.804688 479.796875 309.074219 477.941406 C 309.347656 476.089844 309.722656 474.253906 310.207031 472.445312 C 298.539062 467.390625 299.859375 456.082031 299.144531 446.421875 C 298.53125 441.910156 298.488281 437.398438 299.011719 432.875 C 299.535156 428.355469 300.605469 423.972656 302.230469 419.71875 C 302.660156 418.867188 302.746094 417.980469 302.484375 417.0625 C 297.402344 406.332031 303.710938 395.847656 303.253906 385.140625 C 303.160156 380.75 303.753906 376.460938 305.042969 372.265625 C 306.328125 368.066406 308.238281 364.179688 310.773438 360.597656 C 311.949219 358.84375 311.730469 356.144531 312.136719 353.890625 C 312.625 351.0625 312.082031 347.164062 313.75 345.601562 C 318.019531 340.070312 321.027344 333.917969 322.777344 327.152344 C 325.082031 322.253906 327.253906 317.300781 329.296875 312.296875 C 330.902344 309.363281 331.917969 306.242188 332.347656 302.929688 C 332.308594 295.929688 337.417969 292.347656 341.3125 288.195312 C 341.949219 287.714844 342.621094 287.289062 343.324219 286.914062 C 344.027344 286.539062 344.757812 286.222656 345.511719 285.960938 C 346.265625 285.703125 347.035156 285.503906 347.820312 285.363281 C 348.605469 285.226562 349.398438 285.148438 350.195312 285.136719 C 350.992188 285.121094 351.785156 285.171875 352.574219 285.28125 C 353.363281 285.394531 354.140625 285.566406 354.902344 285.800781 C 355.664062 286.035156 356.40625 286.324219 357.121094 286.675781 C 357.835938 287.027344 358.523438 287.429688 359.175781 287.890625 C 364.773438 291.691406 369.582031 295.71875 367.582031 304.054688 C 367.128906 308.578125 367.359375 313.0625 368.273438 317.511719 C 369.480469 333.347656 372.714844 348.851562 374.976562 364.496094 C 377.082031 378.890625 382.203125 392.253906 385.351562 406.230469 C 388.695312 418.46875 390.558594 430.925781 390.941406 443.605469 C 391 448.113281 391.394531 452.59375 392.121094 457.042969 C 395.140625 473.632812 396.671875 490.359375 396.707031 507.226562 C 396.851562 515.644531 397.507812 524.023438 398.671875 532.363281 C 399.417969 541.363281 399.722656 550.417969 400.972656 559.339844 C 402.691406 571.511719 405.054688 583.570312 407.222656 595.667969 C 407.808594 598.917969 408.765625 602.105469 409.40625 605.335938 C 409.742188 609.175781 410.699219 612.855469 412.28125 616.375 C 413.859375 619.890625 415.972656 623.050781 418.621094 625.855469 C 432.5625 612.609375 446.121094 599.070312 460.4375 586.390625 C 469.617188 578.277344 480.679688 572.226562 489.417969 563.722656 C 496.402344 555.953125 502.628906 547.613281 508.089844 538.703125 C 508.390625 538.019531 508.515625 537.304688 508.457031 536.558594 C 508.398438 535.8125 508.164062 535.125 507.757812 534.492188 C 503.898438 530.042969 501.707031 523.847656 495.566406 521.695312 C 493.742188 520.976562 492.117188 519.9375 490.699219 518.582031 C 489.28125 517.226562 488.175781 515.648438 487.378906 513.855469 C 482.695312 504.417969 477.167969 495.503906 470.796875 487.113281 C 466.769531 480.734375 463.480469 473.996094 460.933594 466.898438 C 454.617188 454.269531 448.003906 441.777344 441.714844 429.136719 C 437.203125 420.59375 434.128906 411.558594 432.492188 402.035156 C 432.300781 400.191406 431.648438 398.535156 430.53125 397.058594 C 427.390625 392.789062 424.882812 388.171875 423.007812 383.210938 C 421.132812 378.253906 419.960938 373.132812 419.492188 367.851562 C 417.632812 358.511719 417.28125 348.882812 415.128906 339.644531 C 412.652344 330.136719 411.207031 320.476562 410.800781 310.660156 C 410.734375 306.527344 411.898438 302.382812 412.070312 298.226562 C 412.230469 294.398438 411.574219 290.546875 411.671875 286.722656 C 412.542969 265.789062 416.230469 245.363281 422.730469 225.445312 C 427.792969 209.054688 433.140625 192.757812 438.300781 176.390625 C 442.609375 162.765625 463.03125 156.789062 472.402344 166.53125 C 474.089844 168.273438 475.332031 170.292969 476.117188 172.589844 C 481.921875 190.644531 487.992188 208.640625 493.09375 226.902344 C 498.574219 246.488281 503.148438 266.328125 507.949219 286.101562 C 508.511719 289.085938 508.667969 292.09375 508.417969 295.121094 C 508.5 300.191406 509.28125 305.152344 510.761719 310 C 513.15625 320.492188 514.578125 331.117188 515.027344 341.871094 C 514.722656 345.324219 514.925781 348.746094 515.640625 352.140625 C 516.351562 355.53125 517.539062 358.746094 519.207031 361.785156 C 520.320312 363.257812 520.9375 364.914062 521.066406 366.753906 C 520.976562 369.347656 521.351562 371.867188 522.199219 374.320312 C 523.042969 376.773438 524.300781 378.992188 525.96875 380.976562 C 526.847656 382.242188 527.378906 383.640625 527.5625 385.171875 C 529.15625 393.402344 530.683594 401.644531 532.148438 409.894531 C 535.65625 429.433594 539.40625 448.902344 542.570312 468.484375 C 543.851562 476.445312 543.808594 484.609375 544.53125 492.667969 C 544.96875 497.378906 545.71875 502.082031 546.363281 507.046875 C 570.527344 489.6875 593.261719 470.625 614.566406 449.855469 C 613.714844 448.753906 612.695312 447.839844 611.503906 447.117188 C 610.378906 446.691406 609.320312 446.128906 608.335938 445.433594 C 607.351562 444.738281 606.46875 443.929688 605.691406 443.007812 C 604.910156 442.085938 604.261719 441.082031 603.738281 439.996094 C 603.214844 438.910156 602.839844 437.773438 602.605469 436.589844 C 601.671875 433.121094 600.269531 429.847656 598.402344 426.777344 C 590.835938 414.796875 585.121094 401.992188 581.261719 388.355469 C 580.921875 387.203125 580.789062 385.746094 580.035156 384.992188 C 572.71875 378.179688 572.519531 368.476562 569.535156 359.902344 C 568.707031 357.644531 567.628906 355.519531 566.296875 353.523438 C 562.488281 347.640625 560.316406 341.726562 566.316406 334.75 L 558.867188 333.714844 C 557.792969 330.324219 556.507812 326.664062 555.480469 322.933594 C 554.457031 319.203125 553.804688 315.304688 548.992188 314.019531 C 548.242188 313.582031 547.613281 313.011719 547.113281 312.304688 C 546.613281 311.59375 546.28125 310.816406 546.121094 309.960938 C 544.140625 300.84375 542.457031 291.664062 540.636719 282.511719 C 540.214844 281.375 539.945312 280.203125 539.820312 279 C 539.695312 277.792969 539.726562 276.59375 539.90625 275.394531 C 540.085938 274.199219 540.414062 273.042969 540.886719 271.925781 C 541.359375 270.8125 541.964844 269.773438 542.699219 268.808594 C 545.054688 266.152344 543.417969 263.957031 541.273438 261.828125 C 539.867188 260.179688 538.683594 258.382812 537.730469 256.433594 C 536.773438 254.488281 536.078125 252.453125 535.636719 250.332031 C 535.195312 248.207031 535.023438 246.0625 535.125 243.898438 C 535.222656 241.730469 535.589844 239.613281 536.222656 237.539062 C 536.933594 236.242188 537.328125 234.855469 537.410156 233.378906 C 537.03125 227.125 536.386719 220.878906 535.863281 214.625 C 535.605469 213.4375 535.515625 212.238281 535.597656 211.027344 C 535.679688 209.8125 535.929688 208.636719 536.34375 207.492188 C 536.761719 206.351562 537.328125 205.289062 538.042969 204.308594 C 538.761719 203.328125 539.601562 202.464844 540.5625 201.722656 C 543.730469 199.546875 543.359375 196.789062 542.574219 193.804688 C 541.742188 190.769531 541.476562 187.691406 541.773438 184.558594 C 542.070312 181.429688 542.910156 178.453125 544.292969 175.628906 C 546.785156 169.785156 548.25 163.691406 548.679688 157.351562 C 548.664062 156.585938 548.703125 155.820312 548.796875 155.0625 C 548.890625 154.300781 549.039062 153.550781 549.242188 152.8125 C 549.445312 152.074219 549.699219 151.351562 550.007812 150.652344 C 550.316406 149.949219 550.675781 149.273438 551.082031 148.625 C 551.488281 147.976562 551.941406 147.359375 552.4375 146.777344 C 552.9375 146.191406 553.472656 145.648438 554.050781 145.144531 C 554.625 144.640625 555.234375 144.179688 555.878906 143.761719 C 556.523438 143.347656 557.191406 142.980469 557.890625 142.660156 L 556.789062 135.425781 C 557.75 135.011719 558.640625 134.484375 559.472656 133.851562 C 560.304688 133.21875 561.046875 132.496094 561.703125 131.683594 C 562.359375 130.871094 562.90625 129.992188 563.351562 129.046875 C 563.792969 128.101562 564.117188 127.113281 564.320312 126.089844 C 569.851562 110.816406 577.335938 96.566406 586.769531 83.339844 C 588.117188 82.292969 589.5625 81.398438 591.105469 80.664062 C 592.648438 79.929688 594.253906 79.371094 595.917969 78.988281 C 597.582031 78.605469 599.269531 78.40625 600.976562 78.390625 C 602.6875 78.378906 604.375 78.546875 606.046875 78.902344 C 606.828125 79.199219 607.574219 79.5625 608.289062 79.988281 C 609.007812 80.414062 609.679688 80.902344 610.3125 81.445312 C 610.941406 81.988281 611.523438 82.582031 612.050781 83.226562 C 612.578125 83.875 613.046875 84.558594 613.453125 85.285156 C 613.863281 86.011719 614.203125 86.769531 614.480469 87.554688 C 614.757812 88.339844 614.964844 89.144531 615.101562 89.96875 C 615.238281 90.789062 615.300781 91.617188 615.292969 92.453125 C 615.285156 93.285156 615.207031 94.113281 615.054688 94.929688 C 611.898438 124.070312 611.558594 153.242188 614.039062 182.449219 C 614.949219 200.460938 618.585938 218.332031 620.492188 236.320312 C 621.238281 243.386719 620.347656 250.597656 620.632812 257.730469 C 621.09375 269.386719 622.109375 281.023438 622.507812 292.675781 C 622.800781 301.082031 621.839844 309.558594 622.550781 317.910156 C 623.824219 332.84375 625.207031 347.84375 627.886719 362.570312 C 630.816406 378.269531 632.492188 394.101562 632.910156 410.066406 C 632.628906 413.863281 632.847656 417.632812 633.5625 421.371094 C 634.277344 425.109375 635.464844 428.695312 637.125 432.117188 C 657.980469 423.925781 673.097656 407.492188 690.890625 395.039062 C 690.953125 394.582031 690.976562 394.125 690.964844 393.664062 C 690.949219 393.203125 690.894531 392.75 690.800781 392.296875 C 690.710938 391.847656 690.578125 391.40625 690.414062 390.976562 C 690.246094 390.546875 690.046875 390.136719 689.808594 389.742188 C 689.574219 389.347656 689.304688 388.972656 689.003906 388.625 C 688.707031 388.273438 688.378906 387.953125 688.023438 387.65625 C 687.671875 387.363281 687.296875 387.101562 686.898438 386.871094 C 686.5 386.640625 686.082031 386.441406 685.652344 386.28125 C 684.914062 386.003906 684.203125 385.664062 683.523438 385.261719 C 682.84375 384.859375 682.203125 384.402344 681.605469 383.886719 C 681.003906 383.375 680.453125 382.8125 679.953125 382.203125 C 679.449219 381.59375 679.003906 380.945312 678.617188 380.257812 C 678.226562 379.570312 677.898438 378.851562 677.636719 378.109375 C 677.371094 377.363281 677.175781 376.601562 677.042969 375.824219 C 676.910156 375.042969 676.847656 374.261719 676.851562 373.46875 C 676.859375 372.679688 676.933594 371.898438 677.074219 371.121094 C 677.070312 366.277344 676.539062 361.496094 675.476562 356.773438 C 674.410156 352.050781 672.84375 347.503906 670.769531 343.128906 C 668.304688 335.441406 666.375 327.574219 664.253906 319.78125 C 663.96875 317.746094 663.484375 315.757812 662.796875 313.824219 C 660.238281 308.132812 657.179688 302.726562 653.613281 297.605469 C 651.140625 293.636719 649.242188 289.40625 647.917969 284.917969 C 646.589844 280.433594 645.882812 275.847656 645.796875 271.171875 C 645.355469 262.753906 644.464844 254.382812 643.128906 246.058594 C 641.078125 236.015625 640.035156 225.871094 639.992188 215.625 C 638.808594 197.394531 637.640625 179.199219 638.113281 160.875 C 638.5625 142.753906 644.519531 125.511719 645.347656 107.75 C 646.769531 96.605469 649.273438 85.707031 652.855469 75.058594 C 655.523438 63.972656 659.488281 53.1875 663.117188 42.359375 C 665.679688 34.699219 668.542969 27.144531 671.421875 19.601562 C 671.738281 18.792969 672.117188 18.015625 672.550781 17.265625 C 672.988281 16.511719 673.472656 15.800781 674.015625 15.121094 C 674.554688 14.441406 675.140625 13.808594 675.777344 13.214844 C 676.410156 12.625 677.085938 12.082031 677.800781 11.589844 C 678.515625 11.097656 679.261719 10.664062 680.039062 10.28125 C 680.820312 9.898438 681.621094 9.578125 682.449219 9.316406 C 683.277344 9.054688 684.117188 8.855469 684.972656 8.714844 C 685.828125 8.578125 686.691406 8.503906 687.558594 8.492188 C 689.695312 8.492188 691.738281 8.449219 693.828125 8.464844 C 694.496094 8.402344 695.160156 8.40625 695.828125 8.476562 C 696.496094 8.550781 697.148438 8.6875 697.785156 8.894531 C 698.425781 9.101562 699.035156 9.367188 699.617188 9.699219 C 700.203125 10.03125 700.746094 10.417969 701.25 10.859375 C 701.753906 11.304688 702.207031 11.792969 702.613281 12.328125 C 703.015625 12.863281 703.359375 13.433594 703.648438 14.039062 C 703.933594 14.644531 704.15625 15.277344 704.316406 15.925781 C 704.472656 16.578125 704.5625 17.242188 704.585938 17.910156 C 705.222656 22.90625 704.808594 28.03125 705.0625 33.085938 C 705.675781 44.824219 706.667969 56.546875 707.039062 68.292969 C 707.414062 80.035156 707.230469 91.78125 707.285156 103.519531 C 707.34375 114.894531 707.171875 126.273438 707.570312 137.640625 C 707.734375 142.082031 709.453125 146.441406 709.960938 150.921875 C 710.574219 156.570312 710.488281 162.289062 710.972656 167.96875 C 711.347656 172.050781 712.394531 176.066406 712.792969 180.144531 C 714.707031 199.542969 716.375 219 718.367188 238.378906 C 720.214844 258.222656 719.648438 278 716.667969 297.707031 C 716.074219 302.503906 716.066406 307.296875 716.644531 312.09375 C 716.8125 318.078125 715.953125 323.914062 714.066406 329.597656 C 712.3125 336.875 712.375 344.632812 710.3125 351.792969 C 709.570312 355.683594 709.285156 359.605469 709.460938 363.558594 C 709.632812 367.511719 710.261719 371.394531 711.339844 375.203125 C 715.425781 373.933594 719.371094 372.320312 723.179688 370.371094 C 737.9375 361.046875 752.496094 351.40625 767.101562 341.847656 C 768.613281 340.855469 769.9375 339.585938 771.4375 338.574219 C 774.109375 336.738281 778.574219 335.4375 779.1875 333.089844 C 780.175781 327.773438 780.46875 322.417969 780.0625 317.023438 C 779.773438 315.273438 779.265625 313.589844 778.542969 311.96875 C 774.875 299.046875 771.332031 286.0625 767.464844 273.230469 C 766.433594 270.433594 764.90625 267.941406 762.890625 265.75 C 759.144531 259.558594 756.707031 252.890625 755.582031 245.738281 C 753.449219 239.527344 753.285156 231.453125 744.332031 229.144531 C 739.667969 227.957031 736.695312 218.777344 738.195312 212.664062 C 738.835938 210.035156 740.289062 207.597656 740.808594 204.964844 C 741.554688 201.523438 741.898438 198.042969 741.835938 194.523438 C 741.5625 192.480469 741.675781 190.457031 742.183594 188.460938 C 742.691406 186.460938 743.554688 184.628906 744.769531 182.964844 C 747.332031 179.519531 747.15625 173.96875 747.941406 169.300781 C 748.507812 165.945312 747.09375 162.167969 751.816406 160.179688 C 752.269531 159.800781 752.664062 159.371094 753.003906 158.890625 C 753.34375 158.40625 753.617188 157.890625 753.828125 157.339844 C 754.035156 156.789062 754.171875 156.21875 754.234375 155.632812 C 754.296875 155.046875 754.285156 154.464844 754.195312 153.878906 C 750.902344 144.71875 756.554688 136.328125 755.894531 127.480469 C 755.765625 125.75 756.761719 123.71875 756.140625 122.296875 C 754.828125 119.273438 756.070312 117.398438 757.519531 114.902344 C 759.011719 111.929688 760.023438 108.800781 760.558594 105.519531 C 761.347656 101.886719 759.371094 99.917969 755.039062 98.984375 C 752.347656 105.410156 750.449219 112.0625 749.34375 118.941406 C 749.722656 122.457031 749.511719 125.9375 748.710938 129.382812 C 747.90625 132.828125 746.558594 136.042969 744.667969 139.027344 C 740.347656 138.398438 740.140625 135.476562 740.695312 132.824219 C 744.484375 114.550781 743.78125 95.292969 751.089844 77.921875 C 754.007812 70.09375 756.457031 62.121094 758.429688 54 C 759.828125 50.421875 761.550781 47.007812 763.589844 43.75 C 764.265625 42.773438 764.703125 41.695312 764.90625 40.523438 C 765.101562 37.957031 765.695312 35.484375 766.683594 33.105469 C 767.671875 30.726562 769.007812 28.558594 770.691406 26.609375 C 777.695312 14.617188 786.164062 3.769531 796.097656 -5.933594 C 804.679688 -13.886719 812.785156 -22.304688 820.40625 -31.183594 C 821.824219 -32.664062 823.609375 -34.910156 825.214844 -34.925781 C 826.238281 -35 827.246094 -35.152344 828.242188 -35.378906 C 829.238281 -35.609375 830.210938 -35.910156 831.164062 -36.289062 C 832.113281 -36.664062 833.03125 -37.109375 833.914062 -37.628906 C 834.796875 -38.144531 835.636719 -38.722656 836.429688 -39.367188 C 837.226562 -40.011719 837.964844 -40.710938 838.652344 -41.46875 C 839.34375 -42.226562 839.96875 -43.03125 840.535156 -43.882812 C 841.097656 -44.734375 841.597656 -45.625 842.027344 -46.554688 C 842.457031 -47.480469 842.8125 -48.4375 843.097656 -49.421875 C 848.164062 -60.707031 857.027344 -60.445312 866.175781 -60.542969 C 868.121094 -60.445312 870.019531 -60.089844 871.863281 -59.46875 C 873.710938 -58.851562 875.441406 -57.992188 877.050781 -56.894531 C 878.226562 -56.039062 879.179688 -54.980469 879.914062 -53.722656 C 880.644531 -52.460938 881.09375 -51.109375 881.257812 -49.660156 C 881.609375 -40.332031 881.292969 -30.964844 880.980469 -21.605469 C 880.644531 -14.058594 878.976562 -6.820312 875.980469 0.117188 C 873.875 6.683594 872.769531 13.417969 872.664062 20.3125 C 872.898438 29.472656 871.3125 38.300781 867.90625 46.804688 C 866.992188 49.679688 866.507812 52.621094 866.460938 55.632812 C 866.015625 58.214844 865.328125 60.773438 864.996094 63.371094 C 864.488281 65.597656 864.429688 67.839844 864.8125 70.09375 C 865.203125 70.996094 865.460938 71.9375 865.589844 72.914062 C 865.71875 73.890625 865.710938 74.863281 865.566406 75.839844 C 865.421875 76.8125 865.144531 77.75 864.738281 78.648438 C 864.332031 79.542969 863.8125 80.367188 863.175781 81.121094 C 856.195312 89.007812 855.371094 99.257812 852.992188 108.804688 C 850.144531 120.265625 848.03125 131.929688 845.625 143.496094 C 844.550781 148.726562 843.667969 154 842.59375 159.242188 C 842.367188 160.75 841.855469 162.160156 841.0625 163.460938 C 838.734375 167.667969 837.015625 172.109375 835.910156 176.789062 C 834.804688 181.464844 834.355469 186.207031 834.554688 191.007812 C 833.917969 198.449219 833.832031 205.878906 833.429688 213.300781 C 832.992188 220.980469 832.988281 228.660156 833.414062 236.339844 C 833.425781 243.019531 832.109375 249.429688 829.476562 255.570312 C 826.675781 262.632812 825.464844 269.957031 825.847656 277.542969 C 826.15625 279.644531 826.039062 281.722656 825.496094 283.777344 C 824.953125 285.832031 824.023438 287.699219 822.714844 289.371094 C 819.085938 293.664062 819.960938 298.78125 820.125 305.742188 C 824.9375 302.003906 830.152344 299.992188 831.75 296.34375 C 835.058594 288.855469 842.167969 288.9375 847.785156 286.214844 C 849.6875 285.285156 851.5 285.332031 852.164062 282.777344 C 852.78125 281.394531 853.714844 280.273438 854.96875 279.417969 C 858.148438 276.6875 861.722656 274.351562 864.609375 271.347656 C 867.421875 268.097656 870.039062 264.691406 872.460938 261.136719 C 871.566406 257.691406 871.082031 254.191406 871.015625 250.632812 C 870.945312 247.078125 871.289062 243.558594 872.046875 240.082031 C 872.566406 233.175781 872.292969 226.296875 871.222656 219.453125 C 871.054688 216.777344 870.414062 214.117188 870.351562 211.445312 C 870.214844 206.046875 870.140625 200.628906 870.359375 195.238281 C 869.996094 177.777344 870.996094 160.390625 873.367188 143.082031 C 875.390625 130.355469 878.066406 117.765625 881.398438 105.316406 C 884.34375 95.886719 885.773438 85.984375 887.976562 76.300781 C 888.542969 73.675781 889.363281 71.128906 890.433594 68.660156 C 896.582031 54.964844 902.804688 41.296875 909.105469 27.660156 C 913.21875 17.886719 918.570312 8.84375 925.160156 0.535156 C 931.515625 -6.953125 936.527344 -15.574219 942.214844 -23.632812 C 943.40625 -25.328125 945.03125 -26.71875 946.371094 -28.316406 C 950.433594 -33.136719 954.210938 -38.21875 958.546875 -42.777344 C 965.445312 -50.027344 972.355469 -57.332031 979.902344 -63.875 C 986.367188 -69.476562 994.238281 -66.019531 1001.058594 -64.328125 C 1006.382812 -63.011719 1008.085938 -55.164062 1006.238281 -48.609375 C 1003.710938 -39.667969 1001.636719 -30.5625 999.03125 -21.613281 C 997.273438 -15.582031 994.839844 -9.773438 992.996094 -3.71875 C 991.242188 2.011719 989.996094 7.828125 988.496094 13.605469 C 986.832031 19.925781 985.421875 26.347656 983.246094 32.488281 C 982.625 34.253906 979.738281 35.214844 977.347656 36.933594 C 983.757812 45.484375 971.960938 51.859375 974.199219 60.789062 L 972.269531 60.578125 L 973.417969 46.207031 C 970.351562 50.15625 967.75 54.390625 965.609375 58.90625 C 963.46875 63.425781 961.839844 68.121094 960.722656 72.992188 C 958.910156 80.316406 956.378906 87.382812 953.125 94.191406 C 952.617188 96.265625 952.265625 98.367188 952.066406 100.496094 C 954.910156 97.804688 956.683594 96.125 958.769531 94.148438 C 958.992188 96.035156 959.003906 97.925781 958.804688 99.816406 C 958.601562 101.707031 958.195312 103.554688 957.578125 105.351562 C 956.960938 107.152344 956.15625 108.859375 955.15625 110.480469 C 954.15625 112.097656 952.988281 113.582031 951.652344 114.9375 L 953.320312 106.015625 C 951.046875 107.945312 949.183594 110.214844 947.738281 112.824219 C 946.292969 115.433594 945.359375 118.21875 944.929688 121.171875 C 944.753906 122.414062 946.597656 123.90625 947.644531 125.574219 L 953.085938 121.691406 C 953.703125 122.921875 954.472656 123.722656 954.382812 124.410156 C 954.113281 126.496094 954.136719 129.039062 952.9375 130.503906 C 950.304688 134.539062 948.175781 138.824219 946.542969 143.359375 C 944.910156 147.894531 943.824219 152.554688 943.277344 157.34375 C 941.707031 165.007812 938.992188 172.246094 935.136719 179.054688 C 932.378906 183.648438 929.542969 188.230469 926.347656 192.527344 C 918.121094 204.855469 911.542969 218.011719 906.605469 231.988281 C 906.441406 232.398438 906.925781 233.078125 907.285156 234.152344 C 915.457031 229.070312 923.703125 224.308594 931.492188 218.886719 C 932.664062 217.960938 933.617188 216.84375 934.347656 215.539062 C 935.082031 214.234375 935.535156 212.839844 935.714844 211.355469 C 935.804688 210.074219 936.054688 208.824219 936.464844 207.609375 C 936.875 206.390625 937.429688 205.246094 938.132812 204.171875 C 938.832031 203.09375 939.65625 202.125 940.605469 201.261719 C 941.554688 200.394531 942.597656 199.664062 943.730469 199.0625 C 945.445312 197.703125 946.917969 196.117188 948.152344 194.308594 C 949.382812 192.5 950.316406 190.550781 950.953125 188.457031 C 956.75 176.621094 963.960938 165.46875 970.75 154.128906 C 972.746094 150.78125 975.148438 147.6875 977.429688 144.53125 C 989.246094 127.347656 1002.648438 111.507812 1017.640625 97.011719 C 1020.589844 94.453125 1023.363281 91.71875 1025.964844 88.804688 C 1028.515625 85.753906 1031.105469 86.730469 1034.289062 88.234375 C 1035.519531 85.714844 1036.675781 83.339844 1037.851562 81 C 1039.457031 82.085938 1041.054688 83.136719 1043.679688 84.875 L 1043.082031 77.597656 L 1037.917969 81.167969 C 1037.84375 80.28125 1037.375 79.15625 1037.75 78.546875 C 1042.847656 70.160156 1048.046875 61.839844 1053.265625 53.523438 C 1055.183594 50.472656 1056.894531 47.371094 1061.566406 47.6875 C 1062.957031 47.785156 1065.191406 45.453125 1065.878906 43.757812 C 1066.265625 42.6875 1066.761719 41.664062 1067.367188 40.699219 C 1067.972656 39.730469 1068.671875 38.839844 1069.46875 38.023438 C 1070.265625 37.210938 1071.140625 36.488281 1072.09375 35.859375 C 1073.046875 35.234375 1074.054688 34.714844 1075.121094 34.304688 C 1083.6875 31.242188 1088.074219 23.007812 1095.667969 18.683594 C 1103 14.558594 1109.4375 8.941406 1116.664062 4.613281 C 1121.964844 1.449219 1127.949219 -0.5625 1133.496094 -3.351562 C 1136.125 -4.675781 1138.363281 -6.746094 1140.902344 -8.28125 C 1142.976562 -10.035156 1145.339844 -11.207031 1147.992188 -11.789062 C 1150.554688 -11.992188 1153.011719 -12.609375 1155.359375 -13.648438 C 1157.710938 -14.683594 1159.824219 -16.078125 1161.699219 -17.835938 C 1165.078125 -20.253906 1168.992188 -21.925781 1172.59375 -24.042969 C 1176.164062 -25.5625 1179.410156 -27.601562 1182.332031 -30.15625 C 1183.53125 -31.398438 1184.859375 -32.484375 1186.3125 -33.414062 C 1187.765625 -34.34375 1189.308594 -35.09375 1190.9375 -35.664062 C 1192.570312 -36.230469 1194.242188 -36.605469 1195.960938 -36.78125 C 1197.675781 -36.957031 1199.390625 -36.929688 1201.101562 -36.703125 C 1201.628906 -36.699219 1202.152344 -36.667969 1202.671875 -36.613281 C 1203.195312 -36.554688 1203.710938 -36.46875 1204.226562 -36.355469 C 1204.738281 -36.242188 1205.242188 -36.105469 1205.742188 -35.9375 C 1206.238281 -35.773438 1206.726562 -35.582031 1207.207031 -35.367188 C 1207.683594 -35.148438 1208.148438 -34.910156 1208.601562 -34.644531 C 1209.054688 -34.378906 1209.496094 -34.089844 1209.917969 -33.78125 C 1210.339844 -33.46875 1210.746094 -33.136719 1211.132812 -32.78125 C 1211.523438 -32.429688 1211.890625 -32.054688 1212.238281 -31.664062 C 1212.589844 -31.273438 1212.917969 -30.863281 1213.222656 -30.4375 C 1213.527344 -30.011719 1213.8125 -29.570312 1214.070312 -29.113281 C 1214.332031 -28.65625 1214.566406 -28.1875 1214.777344 -27.707031 C 1214.988281 -27.226562 1215.175781 -26.738281 1215.335938 -26.238281 C 1215.496094 -25.738281 1215.628906 -25.230469 1215.734375 -24.714844 C 1215.839844 -24.203125 1215.921875 -23.683594 1215.972656 -23.160156 C 1216.027344 -22.640625 1216.050781 -22.117188 1216.046875 -21.589844 C 1216.046875 -21.066406 1216.015625 -20.542969 1215.960938 -20.019531 C 1215.476562 -17.316406 1214.351562 -14.910156 1212.582031 -12.804688 C 1209.195312 -9.363281 1206.367188 -5.511719 1204.105469 -1.246094 C 1201.839844 3.019531 1200.230469 7.515625 1199.277344 12.25 C 1197.722656 18.644531 1195.464844 24.78125 1192.503906 30.660156 C 1191.445312 32.839844 1190.027344 34.757812 1188.246094 36.402344 C 1180.40625 44.1875 1172.113281 51.542969 1164.6875 59.703125 C 1161.851562 63.625 1159.648438 67.878906 1158.082031 72.464844 C 1156.964844 75.078125 1155.492188 77.472656 1153.667969 79.652344 C 1151.84375 81.832031 1149.742188 83.699219 1147.363281 85.257812 C 1144.515625 86.984375 1141.984375 89.089844 1139.769531 91.574219 C 1137.554688 94.0625 1135.753906 96.820312 1134.367188 99.847656 C 1130.878906 107.96875 1123.105469 112.730469 1117.253906 119.007812 C 1110.550781 126.203125 1101.925781 130.765625 1095.3125 137.886719 C 1091.644531 141.828125 1087.183594 145.03125 1083.121094 148.621094 C 1078.941406 151.527344 1075.246094 154.960938 1072.042969 158.917969 C 1068.578125 163.664062 1064.558594 167.878906 1059.984375 171.566406 C 1055.40625 175.25 1050.433594 178.277344 1045.058594 180.648438 C 1035.839844 185.050781 1026.257812 188.398438 1016.304688 190.695312 C 1003.835938 193.75 992.179688 198.714844 981.335938 205.585938 C 979.578125 206.75 978.078125 208.179688 976.832031 209.878906 C 975.367188 211.964844 973.710938 213.890625 971.859375 215.648438 C 970.011719 217.410156 968.007812 218.96875 965.851562 220.328125 C 963.691406 221.6875 961.417969 222.820312 959.035156 223.730469 C 956.648438 224.636719 954.199219 225.300781 951.683594 225.71875 C 945.726562 227.101562 943.433594 232.902344 938.984375 237.519531 C 940.230469 238.410156 940.976562 239.402344 941.695312 239.402344 C 951.679688 239.386719 961.265625 244.921875 971.476562 241.570312 C 980.007812 244.894531 990.355469 240.855469 997.972656 248.28125 C 998.746094 249.023438 999.636719 249.578125 1000.648438 249.941406 C 1001.660156 250.304688 1002.699219 250.449219 1003.769531 250.367188 C 1007.460938 250.066406 1011.136719 250.203125 1014.796875 250.777344 C 1018.457031 251.355469 1022 252.351562 1025.417969 253.773438 C 1028.03125 254.367188 1031.148438 253.089844 1035.242188 252.5 C 1039.035156 254.441406 1043.039062 255.734375 1047.25 256.382812 C 1051.460938 257.03125 1055.667969 257 1059.871094 256.289062 C 1066.585938 255.914062 1073.113281 256.851562 1079.449219 259.109375 C 1091.449219 261.863281 1103.410156 264.816406 1115.246094 268.183594 C 1121.28125 269.980469 1127.125 272.261719 1132.78125 275.03125 C 1140.339844 278.558594 1148.292969 280.417969 1156.632812 280.617188 C 1164.613281 286.664062 1164.394531 295.292969 1164.695312 303.710938 C 1164.765625 304.621094 1164.6875 305.519531 1164.453125 306.402344 C 1164.222656 307.285156 1163.851562 308.109375 1163.34375 308.867188 C 1162.835938 309.625 1162.21875 310.28125 1161.488281 310.832031 C 1160.757812 311.382812 1159.960938 311.800781 1159.089844 312.082031 C 1146.3125 317.917969 1133.089844 322.453125 1119.425781 325.695312 C 1105.757812 328.933594 1091.90625 330.8125 1077.871094 331.332031 C 1066.1875 330.667969 1054.582031 329.34375 1043.050781 327.367188 C 1037.082031 326.742188 1031.007812 326.972656 1025.125 325.988281 C 1019.242188 325 1013.605469 322.933594 1007.835938 321.4375 C 1003.109375 319.707031 998.242188 318.617188 993.230469 318.164062 C 987.832031 317.792969 982.671875 316.484375 977.753906 314.230469 C 971.015625 311.960938 963.953125 310.679688 957.128906 308.621094 C 953.777344 307.390625 950.511719 305.96875 947.324219 304.355469 C 946.066406 303.640625 944.730469 303.128906 943.320312 302.816406 C 940.847656 302.628906 938.417969 302.207031 936.03125 301.546875 C 933.640625 300.886719 931.339844 300.003906 929.125 298.894531 C 926.90625 297.785156 924.820312 296.476562 922.859375 294.960938 C 920.898438 293.445312 919.101562 291.753906 917.472656 289.890625 C 912.367188 284.828125 906.964844 280.109375 901.261719 275.734375 C 884.316406 285.507812 858.601562 308.960938 855.003906 318.316406 C 859.660156 319.710938 864.40625 320.59375 869.253906 320.960938 C 874.097656 321.332031 878.925781 321.175781 883.738281 320.5 L 889.445312 325.972656 C 893.757812 324.40625 897.894531 322.867188 901.992188 321.417969 C 902.4375 322.285156 902.949219 323.117188 903.523438 323.90625 C 904.09375 324.699219 904.722656 325.441406 905.410156 326.136719 C 906.097656 326.832031 906.832031 327.472656 907.613281 328.054688 C 908.394531 328.640625 909.21875 329.164062 910.082031 329.621094 C 910.941406 330.082031 911.832031 330.472656 912.753906 330.796875 C 913.675781 331.121094 914.617188 331.375 915.578125 331.554688 C 916.539062 331.738281 917.503906 331.847656 918.480469 331.882812 C 919.457031 331.914062 920.429688 331.875 921.402344 331.765625 C 925.957031 332.222656 930.367188 333.285156 934.628906 334.957031 C 937.234375 335.644531 939.8125 336.410156 944.035156 337.59375 L 946.359375 341.105469 C 949.664062 340.5 952.972656 340.484375 956.28125 341.058594 C 959.589844 341.636719 962.699219 342.769531 965.601562 344.457031 C 967.980469 345.398438 970.445312 345.894531 973 345.953125 C 973.859375 346.085938 975.214844 345.582031 975.574219 346.015625 C 976.527344 346.910156 977.558594 347.703125 978.671875 348.390625 C 979.78125 349.078125 980.953125 349.644531 982.179688 350.09375 C 983.410156 350.542969 984.667969 350.867188 985.960938 351.0625 C 987.253906 351.253906 988.554688 351.320312 989.859375 351.25 C 991.386719 351.453125 992.449219 355.21875 994.023438 357.859375 L 1013.257812 362.128906 L 1016.851562 371.582031 C 1018.769531 371.742188 1020.65625 372.066406 1022.519531 372.554688 C 1024.378906 373.042969 1026.183594 373.6875 1027.933594 374.488281 C 1029.679688 375.289062 1031.347656 376.234375 1032.933594 377.324219 C 1034.519531 378.414062 1036 379.628906 1037.371094 380.976562 C 1040.183594 383.015625 1043.722656 384.015625 1046.667969 385.890625 C 1052.582031 389.90625 1058.003906 394.503906 1062.933594 399.675781 C 1067.867188 404.847656 1072.199219 410.480469 1075.933594 416.578125 C 1079.535156 420.496094 1083.5625 423.914062 1088.015625 426.832031 C 1090.15625 428.761719 1092.078125 430.886719 1093.777344 433.210938 C 1094.945312 434.941406 1095.914062 436.777344 1096.675781 438.71875 C 1097.441406 440.660156 1097.980469 442.664062 1098.300781 444.726562 C 1098.617188 446.789062 1098.707031 448.859375 1098.566406 450.945312 C 1098.425781 453.027344 1098.058594 455.066406 1097.464844 457.070312 C 1095.914062 465.03125 1092.90625 468.039062 1084.71875 467.261719 C 1067.566406 466 1050.6875 463.136719 1034.078125 458.675781 C 1031.820312 458.011719 1029.390625 457.894531 1027.0625 457.445312 C 1022.875 457.175781 1018.796875 456.367188 1014.824219 455.023438 C 1010.851562 453.679688 1007.117188 451.847656 1003.628906 449.519531 C 1002.28125 448.566406 1000.804688 447.886719 999.203125 447.484375 C 997.597656 447.078125 995.976562 446.976562 994.339844 447.175781 C 993.554688 447.386719 992.757812 447.480469 991.949219 447.457031 C 991.136719 447.429688 990.347656 447.285156 989.582031 447.019531 C 988.8125 446.757812 988.101562 446.386719 987.449219 445.90625 C 986.792969 445.429688 986.222656 444.867188 985.734375 444.214844 C 985.203125 443.5 984.585938 442.867188 983.886719 442.3125 C 983.1875 441.761719 982.425781 441.304688 981.609375 440.949219 C 980.789062 440.597656 979.9375 440.351562 979.054688 440.222656 C 978.171875 440.089844 977.289062 440.074219 976.402344 440.171875 C 973.09375 440.371094 969.53125 437.226562 966.179688 435.382812 C 963.238281 433.761719 960.425781 431.894531 957.964844 430.371094 C 953.234375 429.992188 948.601562 429.859375 944.050781 429.175781 C 941.429688 428.527344 938.867188 427.691406 936.367188 426.667969 C 935.527344 426.585938 934.695312 426.445312 933.875 426.246094 C 933.054688 426.046875 932.25 425.789062 931.46875 425.476562 C 930.683594 425.164062 929.925781 424.792969 929.191406 424.371094 C 928.460938 423.949219 927.765625 423.476562 927.101562 422.953125 C 926.4375 422.429688 925.8125 421.863281 925.230469 421.253906 C 924.648438 420.640625 924.109375 419.992188 923.621094 419.300781 C 923.132812 418.613281 922.695312 417.894531 922.308594 417.144531 C 921.921875 416.390625 921.589844 415.617188 921.3125 414.816406 C 911.519531 419.269531 906.914062 409.984375 900.046875 406.113281 C 897.257812 404.542969 895.421875 401.742188 891.328125 402.425781 C 889.558594 402.722656 887.261719 400.339844 885.328125 399.003906 C 883.105469 397.070312 880.730469 395.34375 878.207031 393.828125 C 875.320312 392.886719 872.691406 391.46875 870.320312 389.574219 C 867.949219 387.679688 865.988281 385.429688 864.433594 382.824219 C 862.761719 380.664062 860.628906 379.148438 858.046875 378.269531 C 855.21875 377.375 852.601562 376.070312 850.183594 374.351562 C 847.769531 372.636719 845.671875 370.589844 843.898438 368.21875 C 842.988281 366.605469 841.691406 365.40625 840.015625 364.621094 C 829.46875 360.488281 818.878906 356.398438 808.128906 352.839844 C 806.8125 352.632812 805.5 352.675781 804.199219 352.964844 C 802.898438 353.257812 801.695312 353.777344 800.589844 354.523438 C 791.066406 360.320312 781.769531 366.484375 772.40625 372.535156 C 767.945312 375.417969 763.519531 378.34375 758.410156 381.703125 C 759.632812 383.09375 761.035156 384.261719 762.625 385.210938 C 771.671875 388.347656 780.742188 391.445312 789.945312 394.101562 C 793.007812 395.011719 795.742188 396.515625 798.144531 398.617188 C 801.527344 401.378906 805.539062 407.027344 812.566406 399.761719 L 815.828125 406.523438 C 820.296875 405.601562 824.8125 405.167969 829.375 405.222656 C 831.863281 405.5 834.035156 408.535156 837.003906 410.832031 C 840.484375 407.414062 844.863281 407.875 849.554688 409.5625 C 856.625 412.109375 863.917969 414.035156 870.949219 416.675781 C 871.792969 416.855469 872.609375 417.113281 873.402344 417.453125 C 874.195312 417.796875 874.945312 418.210938 875.65625 418.699219 C 876.367188 419.183594 877.023438 419.738281 877.625 420.355469 C 878.226562 420.972656 878.761719 421.640625 879.234375 422.363281 C 879.703125 423.085938 880.101562 423.847656 880.421875 424.648438 C 880.742188 425.449219 880.980469 426.273438 881.140625 427.121094 C 881.300781 427.96875 881.375 428.820312 881.367188 429.683594 C 881.355469 430.546875 881.261719 431.398438 881.085938 432.242188 C 880.421875 436.808594 884.484375 437.84375 888.941406 437.339844 C 889.507812 436.335938 889.949219 435.28125 890.265625 434.175781 C 890.324219 433.414062 890.511719 432.683594 890.824219 431.988281 C 891.140625 431.289062 891.5625 430.667969 892.097656 430.121094 C 892.628906 429.570312 893.238281 429.132812 893.929688 428.796875 C 894.617188 428.464844 895.339844 428.257812 896.101562 428.179688 C 899.480469 427.753906 900.789062 430.441406 901.578125 433.164062 C 903.527344 439.859375 908.597656 438.046875 912.988281 437.011719 L 919.324219 446.871094 L 923.933594 441.679688 C 932.746094 442.273438 923.347656 451.152344 929.855469 453.351562 L 934.445312 448.410156 C 938.816406 452.007812 944.5 454.1875 945.128906 460.898438 C 941.839844 459.917969 941.363281 453.242188 935.003906 456.78125 C 936.28125 459.085938 937.851562 461.171875 939.710938 463.039062 C 942.152344 464.871094 944.242188 463.71875 944.933594 460.617188 L 946.84375 469.035156 L 951.679688 468.195312 C 953.875 471.371094 956.289062 474.371094 958.917969 477.199219 C 963.039062 482.007812 965.90625 487.476562 967.519531 493.601562 C 968.609375 496.261719 969.375 499.0625 970.449219 502.28125 C 974.292969 498.078125 980.632812 499.835938 982.105469 493.363281 C 984.84375 495.53125 987.128906 498.105469 988.960938 501.082031 C 990.792969 504.054688 992.058594 507.253906 992.761719 510.679688 C 992.773438 511.5 992.914062 512.300781 993.179688 513.078125 C 993.445312 513.859375 993.820312 514.578125 994.3125 515.234375 C 994.804688 515.894531 995.386719 516.460938 996.058594 516.9375 C 996.730469 517.414062 997.457031 517.773438 998.242188 518.019531 C 1000.777344 519.128906 1002.867188 520.796875 1004.507812 523.023438 C 1008.394531 527.945312 1011.925781 533.109375 1015.101562 538.511719 C 1016.246094 541.234375 1016.742188 544.066406 1016.589844 547.011719 C 1016.699219 549.664062 1015.84375 552.355469 1015.933594 555.011719 C 1015.929688 556.046875 1015.828125 557.074219 1015.632812 558.089844 C 1015.4375 559.109375 1015.148438 560.097656 1014.765625 561.058594 C 1014.386719 562.023438 1013.917969 562.941406 1013.367188 563.820312 C 1012.8125 564.695312 1012.183594 565.511719 1011.480469 566.269531 C 1010.773438 567.027344 1010.003906 567.714844 1009.171875 568.328125 C 1008.335938 568.945312 1007.453125 569.476562 1006.523438 569.925781 C 1005.589844 570.375 1004.621094 570.734375 1003.621094 571.003906 C 1002.621094 571.273438 1001.605469 571.445312 1000.574219 571.523438 C 996.109375 572.007812 991.632812 572.183594 987.144531 572.054688 C 981.996094 571.621094 976.40625 572.667969 972.191406 567.660156 C 970.921875 566.144531 967.101562 565.9375 964.683594 566.386719 C 962 566.761719 959.316406 566.769531 956.632812 566.398438 C 953.945312 566.03125 951.363281 565.304688 948.878906 564.21875 C 942.390625 562.222656 935.8125 560.59375 929.144531 559.328125 C 927.949219 559.210938 926.773438 558.988281 925.617188 558.667969 C 916.042969 554.519531 906.527344 550.265625 896.984375 546.066406 C 895.351562 545.351562 893.511719 543.824219 892.085938 544.128906 C 881.34375 546.449219 873.503906 537.632812 863.554688 536.972656 C 862.039062 536.625 860.804688 535.835938 859.851562 534.605469 C 857.082031 531.871094 854.011719 529.53125 850.636719 527.589844 C 847.261719 525.648438 843.695312 524.167969 839.941406 523.148438 C 838.765625 522.863281 837.636719 522.449219 836.558594 521.902344 C 831.890625 517.902344 826.78125 514.578125 821.234375 511.925781 C 815.488281 510.332031 810.199219 507.785156 805.371094 504.28125 C 801.492188 502.066406 797.464844 500.160156 793.292969 498.5625 C 783.050781 493.023438 772.894531 487.3125 762.785156 481.53125 C 760.960938 480.445312 759.382812 479.070312 758.054688 477.410156 C 747.8125 464.847656 733.851562 456.734375 721.519531 446.628906 C 716.039062 442.140625 710.613281 437.589844 705.113281 433.117188 C 697.460938 426.882812 694.726562 428.46875 687.117188 434.433594 C 681 439.238281 674.164062 443.113281 667.753906 447.5625 C 663.976562 450.195312 660.394531 453.242188 656.050781 456.625 C 657.648438 458.105469 659.371094 459.425781 661.214844 460.582031 C 675.4375 467.058594 689.730469 473.375 703.957031 479.8125 C 713.257812 484.046875 722.507812 488.355469 731.707031 492.738281 C 738.695312 496.070312 745.621094 499.5625 752.507812 503.105469 C 753.164062 503.441406 753.394531 504.621094 753.832031 505.414062 C 752.082031 505.085938 750.320312 504.863281 748.542969 504.742188 C 744.914062 504.683594 744.054688 507.253906 744.203125 510.148438 C 744.359375 513.507812 747.113281 517.195312 749.488281 514.960938 C 753.054688 511.605469 753.835938 518.488281 755.816406 516.109375 C 758.574219 511.386719 755.429688 508.421875 753.570312 505.160156 C 757.25 506.425781 760.640625 507.195312 761.230469 512.585938 C 762.289062 516.695312 764.238281 520.324219 767.074219 523.476562 C 767.488281 523.851562 767.933594 524.1875 768.414062 524.472656 C 768.890625 524.761719 769.394531 524.996094 769.921875 525.183594 C 770.449219 525.371094 770.988281 525.5 771.542969 525.578125 C 772.097656 525.65625 772.652344 525.675781 773.210938 525.640625 C 773.769531 525.605469 774.316406 525.515625 774.859375 525.367188 C 775.398438 525.222656 775.917969 525.023438 776.417969 524.773438 C 776.917969 524.523438 777.386719 524.222656 777.824219 523.878906 C 778.265625 523.53125 778.667969 523.148438 779.027344 522.71875 C 779.179688 522.316406 779.226562 521.898438 779.175781 521.46875 C 779.125 521.039062 778.976562 520.648438 778.734375 520.289062 C 778.449219 519.980469 778.105469 519.757812 777.710938 519.621094 C 777.3125 519.488281 776.90625 519.453125 776.492188 519.519531 C 775.398438 520.039062 774.378906 520.671875 773.433594 521.421875 L 766.429688 510.871094 C 770.199219 511.164062 773.804688 510.476562 776.316406 511.820312 C 787.566406 517.835938 798.535156 524.421875 809.589844 530.804688 C 812.691406 532.296875 815.433594 534.285156 817.820312 536.761719 C 816.085938 536.511719 814.152344 535.675781 812.65625 536.167969 C 810.933594 536.726562 808.53125 538.339844 808.371094 539.71875 C 808.257812 540.84375 808.398438 541.933594 808.789062 542.996094 C 809.179688 544.054688 809.78125 544.976562 810.597656 545.761719 C 813.3125 547.578125 814.21875 545.449219 813.722656 542.207031 C 815.699219 542.816406 817.605469 544.058594 819.136719 543.707031 C 821.015625 542.894531 822.6875 541.777344 824.160156 540.351562 C 828.105469 541.96875 831.761719 544.09375 835.117188 546.722656 C 838.476562 549.355469 841.410156 552.394531 843.925781 555.84375 C 841.804688 557.003906 839.660156 558.140625 838.015625 559.015625 L 848 570.507812 C 851.503906 569.652344 853.605469 567.925781 850.566406 563.90625 C 848.398438 561.039062 845.972656 558.371094 843.664062 555.613281 C 847.566406 556.832031 851.207031 558.585938 854.589844 560.875 C 857.972656 563.167969 860.953125 565.898438 863.53125 569.070312 C 864.191406 570.089844 864.984375 570.992188 865.914062 571.773438 C 881.097656 581.226562 887.390625 598.046875 898.449219 610.898438 C 901.675781 623.210938 907.875 635.085938 903.636719 648.449219 C 901.242188 655.996094 896.292969 658.15625 888.921875 653.96875 C 878.207031 647.882812 867.78125 641.300781 857.175781 635.046875 C 852.519531 632.308594 847.585938 630.0625 842.972656 627.257812 C 833.050781 621.152344 823.273438 614.785156 813.398438 608.59375 C 811.464844 607.167969 809.347656 606.121094 807.042969 605.449219 C 805.820312 605.453125 804.613281 605.304688 803.425781 605.003906 C 802.234375 604.703125 801.105469 604.261719 800.027344 603.675781 C 798.949219 603.089844 797.964844 602.382812 797.066406 601.546875 C 796.167969 600.714844 795.386719 599.78125 794.722656 598.75 C 792.292969 594.71875 785.132812 593.308594 779.871094 591.285156 C 774.28125 589.136719 768.363281 587.835938 762.753906 585.773438 C 760.074219 584.785156 756.351562 583.402344 755.519531 581.253906 C 754.261719 578.839844 752.613281 576.734375 750.578125 574.933594 C 748.539062 573.132812 746.246094 571.757812 743.695312 570.808594 C 740.101562 568.710938 736.644531 566.375 733.101562 564.167969 C 731.589844 563.222656 730.039062 561.609375 728.480469 561.589844 C 727.757812 561.609375 727.039062 561.5625 726.328125 561.449219 C 725.613281 561.335938 724.917969 561.15625 724.238281 560.914062 C 723.558594 560.667969 722.90625 560.363281 722.285156 560 C 721.664062 559.632812 721.078125 559.210938 720.535156 558.738281 C 719.992188 558.261719 719.496094 557.742188 719.050781 557.171875 C 718.605469 556.605469 718.214844 556 717.882812 555.359375 C 717.546875 554.71875 717.277344 554.054688 717.070312 553.363281 C 716.859375 552.671875 716.71875 551.964844 716.640625 551.246094 C 715.5 551.476562 714.34375 551.613281 713.179688 551.660156 C 712.015625 551.703125 710.851562 551.65625 709.695312 551.515625 C 708.539062 551.375 707.398438 551.144531 706.277344 550.820312 C 705.15625 550.5 704.070312 550.089844 703.015625 549.59375 C 701.960938 549.097656 700.949219 548.523438 699.988281 547.863281 C 699.023438 547.207031 698.121094 546.480469 697.273438 545.675781 C 696.425781 544.875 695.648438 544.011719 694.941406 543.085938 C 694.230469 542.160156 693.601562 541.183594 693.046875 540.160156 C 691.832031 538.105469 690.335938 536.277344 688.5625 534.675781 C 686.792969 533.078125 684.820312 531.777344 682.652344 530.777344 C 678.652344 528.15625 674.921875 525.191406 671.464844 521.890625 C 664.585938 517.304688 657.199219 513.773438 649.3125 511.292969 C 648.710938 511.113281 648.113281 510.902344 647.53125 510.667969 C 646.945312 510.429688 646.371094 510.167969 645.8125 509.878906 C 645.25 509.589844 644.707031 509.273438 644.175781 508.933594 C 643.644531 508.59375 643.128906 508.226562 642.632812 507.839844 C 642.136719 507.449219 641.65625 507.039062 641.199219 506.605469 C 640.742188 506.171875 640.304688 505.71875 639.886719 505.246094 C 639.472656 504.769531 639.078125 504.277344 638.707031 503.765625 C 638.339844 503.253906 637.992188 502.730469 637.671875 502.1875 C 637.351562 501.640625 637.054688 501.085938 636.789062 500.515625 C 636.519531 499.945312 636.277344 499.363281 636.0625 498.769531 C 635.847656 498.175781 635.664062 497.574219 635.503906 496.960938 C 635.347656 496.351562 635.21875 495.734375 635.117188 495.113281 C 635.015625 494.488281 634.945312 493.863281 634.902344 493.234375 C 634.863281 492.601562 634.847656 491.972656 634.867188 491.34375 C 634.882812 490.710938 634.929688 490.082031 635.003906 489.457031 C 635.082031 488.832031 635.183594 488.207031 635.320312 487.59375 C 635.761719 483.085938 638.519531 478.308594 635.230469 473.789062 C 612.785156 493.03125 590.566406 512.042969 568.382812 531.128906 C 567.324219 532.578125 566.519531 534.152344 565.960938 535.859375 C 571.324219 537.855469 576.375 539.460938 581.203125 541.578125 C 598.300781 549.054688 615.703125 555.929688 632.179688 564.582031 C 641.75 569.609375 651.773438 573.730469 661.09375 579.367188 C 673.625 586.945312 687.082031 592.988281 699.898438 600.109375 C 711.347656 605.878906 722.414062 612.3125 733.09375 619.40625 C 744.707031 629.160156 757.054688 637.871094 770.136719 645.539062 C 772.613281 646.761719 773.796875 650.589844 775.558594 653.195312 C 772.792969 653.390625 769.292969 652.359375 768.507812 658.605469 L 775.351562 653.019531 C 776.996094 654.070312 778.535156 655.253906 779.972656 656.570312 C 784.167969 661.128906 788.171875 665.839844 792.277344 670.476562 C 793.621094 671.6875 794.804688 673.042969 795.816406 674.542969 C 799.371094 681.601562 802.613281 688.820312 806.152344 695.886719 C 807.558594 698.703125 809.8125 701.128906 811.050781 703.992188 C 813.710938 711.210938 815.585938 718.625 816.675781 726.238281 C 817.765625 733.855469 818.042969 741.5 817.507812 749.171875 C 817.414062 750.1875 817.242188 751.1875 816.992188 752.171875 C 816.738281 753.160156 816.410156 754.117188 816.003906 755.050781 C 815.597656 755.984375 815.121094 756.882812 814.570312 757.738281 C 814.023438 758.597656 813.410156 759.40625 812.730469 760.164062 C 812.054688 760.921875 811.320312 761.625 810.53125 762.265625 C 809.742188 762.910156 808.90625 763.484375 808.023438 763.992188 C 807.140625 764.503906 806.226562 764.9375 805.273438 765.300781 C 804.324219 765.664062 803.347656 765.949219 802.351562 766.15625 C 799.625 766.109375 797.082031 765.40625 794.71875 764.046875 C 791.195312 761.859375 787.523438 759.964844 783.695312 758.371094 C 769.867188 754.695312 760.136719 744.425781 748.433594 737.355469 C 744.753906 734.761719 740.6875 733.128906 736.238281 732.457031 C 731.386719 730.703125 727.027344 728.121094 723.152344 724.71875 L 732.78125 719.875 L 727.0625 709.441406 C 718.363281 708.726562 716.71875 709.921875 713.402344 719.703125 C 708.347656 718.027344 703.84375 715.410156 699.890625 711.84375 C 697.128906 710.152344 694.34375 708.523438 691.5625 706.882812 C 691.3125 706.738281 690.929688 706.796875 690.71875 706.65625 C 687.035156 703.855469 683.195312 701.28125 679.199219 698.945312 C 675.292969 696.929688 670.296875 697.097656 667.75 692.464844 C 666.898438 691.164062 665.738281 690.269531 664.265625 689.773438 C 661.222656 688.414062 658.421875 686.667969 655.863281 684.53125 C 653.304688 682.398438 651.085938 679.953125 649.207031 677.203125 C 650.074219 677.410156 650.949219 677.546875 651.839844 677.613281 C 654.117188 677.589844 656.46875 676.898438 655.625 674.183594 C 655.292969 673.265625 654.777344 672.472656 654.074219 671.800781 C 653.367188 671.128906 652.546875 670.652344 651.617188 670.367188 C 648.890625 670.113281 648.59375 672.484375 649.105469 674.804688 C 649.257812 675.652344 649.367188 676.507812 649.4375 677.367188 Z M 676.867188 689.234375 L 676.53125 683.695312 L 671.78125 684.289062 L 671.347656 685.90625 C 673.25 686.953125 675.144531 688.007812 677.085938 689.015625 C 677.613281 689.65625 678.226562 690.207031 678.917969 690.664062 C 679.613281 691.125 680.355469 691.472656 681.152344 691.710938 C 681.949219 691.949219 682.761719 692.066406 683.59375 692.0625 C 684.425781 692.058594 685.238281 691.9375 686.035156 691.691406 C 685.816406 691.304688 685.5625 690.945312 685.273438 690.609375 C 684.984375 690.273438 684.664062 689.96875 684.316406 689.695312 C 683.964844 689.421875 683.59375 689.1875 683.195312 688.992188 C 682.796875 688.792969 682.386719 688.636719 681.957031 688.519531 C 681.53125 688.40625 681.09375 688.332031 680.652344 688.304688 C 680.210938 688.273438 679.769531 688.289062 679.328125 688.347656 C 678.890625 688.410156 678.460938 688.511719 678.042969 688.65625 C 677.621094 688.800781 677.222656 688.984375 676.839844 689.210938 Z M 926.171875 348.277344 C 926.425781 349.378906 926.46875 351.3125 926.972656 351.441406 C 930.21875 352.285156 933.585938 352.710938 936.878906 353.289062 L 937.242188 351.738281 L 926.132812 348.253906 L 916.921875 347.515625 C 920.660156 352.261719 923.363281 349.40625 926.171875 348.277344 Z M 753.164062 644.894531 L 754.464844 649.011719 C 756.003906 647.972656 758.484375 647.128906 758.792969 645.855469 C 758.78125 644.933594 758.535156 644.070312 758.058594 643.277344 C 757.585938 642.484375 756.941406 641.863281 756.132812 641.410156 C 753.496094 640.910156 752.84375 643.164062 753.3125 645.558594 L 747.425781 639.746094 C 748.894531 645.285156 748.894531 645.285156 753.140625 644.875 Z M 731.253906 504.871094 L 740.511719 510.625 C 743.542969 505.714844 741.554688 503.535156 738.550781 501.332031 C 735.910156 502.648438 733.542969 503.808594 731.21875 504.914062 C 731.632812 498.089844 731.632812 498.089844 724.429688 495.902344 C 724.9375 497.53125 725.636719 499.078125 726.53125 500.535156 C 728.003906 502.089844 729.578125 503.535156 731.253906 504.871094 Z M 719.3125 625.792969 C 719.265625 626.207031 719.253906 626.621094 719.28125 627.035156 C 719.3125 627.449219 719.375 627.859375 719.476562 628.261719 C 719.578125 628.664062 719.714844 629.054688 719.890625 629.433594 C 720.0625 629.8125 720.265625 630.171875 720.503906 630.511719 C 720.742188 630.851562 721.007812 631.167969 721.300781 631.460938 C 721.597656 631.753906 721.914062 632.019531 722.257812 632.253906 C 722.601562 632.488281 722.960938 632.691406 723.339844 632.859375 C 723.71875 633.03125 724.109375 633.164062 724.515625 633.261719 C 727.835938 634.214844 731.21875 634.988281 734.96875 635.9375 L 736.960938 627.71875 L 720.191406 615.695312 C 720.925781 618.261719 721.402344 620.878906 721.621094 623.539062 C 721.578125 624.40625 719.96875 625.191406 719.085938 626.074219 C 718.171875 623.597656 717.222656 621.152344 713.894531 621.222656 C 713.125 626.960938 713.125 626.960938 719.296875 625.777344 Z M 690.109375 614.023438 C 691.527344 614.085938 693.421875 613.585938 694.296875 614.3125 C 696.261719 616.121094 698.457031 617.582031 700.886719 618.691406 C 703.316406 619.804688 705.859375 620.511719 708.515625 620.8125 C 714.355469 611.285156 713.453125 609.804688 698.464844 604.222656 L 695.851562 612.007812 L 689.421875 599.398438 L 681.390625 601.789062 C 678.191406 599.316406 682.429688 593.207031 676.070312 593.519531 C 673.96875 601.773438 674.886719 603.367188 681.425781 606.890625 C 684.652344 609.023438 687.644531 611.445312 690.394531 614.160156 L 678.363281 612.304688 C 679.136719 614.414062 679.203125 615.890625 679.945312 616.417969 C 687.632812 621.96875 695.464844 627.320312 703.28125 632.691406 C 705.242188 634.042969 707.40625 635.105469 709.3125 636.507812 C 718.699219 643.425781 728.03125 650.417969 737.382812 657.375 C 737.808594 657.8125 738.308594 658.128906 738.890625 658.324219 C 740.289062 658.476562 742.410156 658.984375 742.960938 658.304688 C 743.511719 657.648438 743.898438 656.90625 744.113281 656.078125 C 744.328125 655.25 744.355469 654.414062 744.195312 653.574219 C 743.765625 652.472656 743.160156 651.484375 742.375 650.601562 C 741.585938 649.71875 740.671875 649.003906 739.628906 648.453125 C 735.164062 646.683594 730.988281 644.394531 727.09375 641.585938 C 723.199219 638.777344 719.710938 635.535156 716.621094 631.859375 C 715.574219 630.859375 714.332031 630.226562 712.90625 629.96875 C 708.6875 628.695312 704.695312 626.929688 700.917969 624.667969 C 697.140625 622.40625 693.699219 619.714844 690.589844 616.597656 C 690.082031 616.164062 690.292969 614.914062 690.089844 614.007812 Z M 667.683594 596.796875 C 668.5625 595 668.851562 594.691406 668.796875 594.476562 C 667.683594 592.464844 666.390625 590.574219 664.917969 588.808594 C 663.449219 587.042969 661.824219 585.429688 660.046875 583.96875 C 658.265625 582.511719 656.367188 581.234375 654.347656 580.136719 C 652.328125 579.039062 650.222656 578.140625 648.03125 577.441406 C 647.417969 577.445312 646.871094 577.636719 646.390625 578.011719 C 642.9375 580.972656 639.664062 580.378906 636.179688 577.878906 C 635.332031 577.277344 633.597656 577.90625 630.777344 578.046875 C 632.71875 580.617188 633.613281 583.019531 635.0625 583.476562 C 639.128906 585.160156 643.359375 585.824219 647.746094 585.472656 C 648.410156 585.238281 649.09375 585.109375 649.796875 585.078125 C 650.5 585.046875 651.191406 585.117188 651.875 585.289062 C 652.558594 585.460938 653.199219 585.730469 653.804688 586.089844 C 654.40625 586.453125 654.945312 586.894531 655.417969 587.414062 C 659.058594 590.699219 663.199219 593.410156 667.667969 596.777344 Z M 767.878906 132.785156 C 768.316406 132.777344 768.75 132.734375 769.179688 132.648438 C 769.609375 132.5625 770.027344 132.4375 770.433594 132.273438 C 770.839844 132.109375 771.226562 131.90625 771.597656 131.671875 C 771.964844 131.433594 772.308594 131.164062 772.628906 130.863281 C 772.945312 130.5625 773.234375 130.234375 773.492188 129.882812 C 773.75 129.527344 773.972656 129.152344 774.15625 128.753906 C 774.34375 128.359375 774.492188 127.949219 774.605469 127.523438 C 774.714844 127.101562 774.785156 126.667969 774.8125 126.230469 C 775.585938 122.699219 775.804688 119.128906 775.460938 115.53125 C 775.179688 114.441406 775.023438 113.332031 774.996094 112.207031 C 774.964844 111.082031 775.066406 109.96875 775.292969 108.867188 C 775.519531 107.761719 775.867188 106.703125 776.339844 105.679688 C 776.8125 104.65625 777.390625 103.699219 778.082031 102.8125 C 779.777344 100.957031 779.835938 98.429688 776.410156 96.867188 C 774.5625 98.847656 773.125 101.09375 772.097656 103.605469 C 770.398438 113.125 769.28125 122.769531 767.878906 132.785156 Z M 848.636719 438.804688 C 847.058594 445.007812 852.027344 446.707031 854.351562 449.863281 C 854.773438 450.457031 855.304688 450.929688 855.941406 451.285156 C 856.578125 451.636719 857.257812 451.835938 857.984375 451.882812 C 861.273438 450.921875 864.488281 449.753906 867.625 448.375 C 864.703125 446.246094 862.085938 445.304688 861.191406 443.503906 C 858.421875 437.910156 853.851562 438.460938 848.648438 438.816406 Z M 907.839844 55.808594 C 899.871094 60.507812 899.851562 60.496094 896.027344 75.921875 C 895.476562 78.171875 894.695312 80.714844 897.726562 81.894531 C 899.285156 77.863281 901.394531 74.144531 904.054688 70.738281 C 905 69.769531 905.800781 68.695312 906.464844 67.515625 C 907.125 66.335938 907.621094 65.09375 907.953125 63.78125 C 908.285156 62.46875 908.441406 61.140625 908.421875 59.785156 C 908.402344 58.433594 908.207031 57.109375 907.839844 55.808594 Z M 778.207031 29.667969 C 774.898438 32.070312 772.425781 32.960938 771.570312 34.671875 C 769.890625 38.433594 768.535156 42.308594 767.507812 46.300781 C 767.4375 46.726562 767.472656 47.140625 767.617188 47.546875 C 767.761719 47.957031 767.992188 48.304688 768.3125 48.589844 C 769.242188 48.996094 771.082031 49.222656 771.449219 48.722656 C 772.65625 47.46875 773.71875 46.097656 774.632812 44.613281 C 775.546875 43.128906 776.296875 41.566406 776.878906 39.921875 C 777.460938 38.28125 777.863281 36.59375 778.089844 34.867188 C 778.3125 33.140625 778.351562 31.40625 778.207031 29.667969 Z M 940.480469 148.625 L 947.605469 130.023438 C 938.148438 131.070312 936.351562 134.953125 940.480469 148.625 Z M 691.234375 691.535156 L 689.886719 693.117188 L 705.351562 707.078125 C 708.496094 706.265625 710.691406 704.804688 709.925781 701.765625 Z M 894.007812 112.261719 L 895.125 98.128906 C 894.671875 97.980469 894.207031 97.890625 893.734375 97.855469 C 893.257812 97.820312 892.785156 97.839844 892.3125 97.914062 C 891.84375 97.988281 891.386719 98.121094 890.949219 98.304688 C 890.507812 98.488281 890.097656 98.71875 889.710938 99 C 889.328125 99.28125 888.980469 99.601562 888.671875 99.964844 C 888.363281 100.328125 888.097656 100.722656 887.882812 101.148438 C 887.667969 101.570312 887.503906 102.015625 887.394531 102.480469 C 887.28125 102.941406 887.226562 103.414062 887.226562 103.890625 C 887.152344 104.140625 887.09375 104.398438 887.054688 104.660156 C 887.011719 104.917969 886.984375 105.179688 886.972656 105.445312 C 886.960938 105.707031 886.964844 105.972656 886.988281 106.234375 C 887.007812 106.496094 887.042969 106.757812 887.09375 107.015625 C 887.148438 107.273438 887.214844 107.53125 887.296875 107.78125 C 887.378906 108.03125 887.476562 108.273438 887.589844 108.511719 C 887.703125 108.75 887.828125 108.984375 887.96875 109.207031 C 888.109375 109.429688 888.261719 109.644531 888.425781 109.847656 C 888.59375 110.054688 888.769531 110.246094 888.960938 110.429688 C 889.148438 110.613281 889.347656 110.785156 889.558594 110.945312 C 889.769531 111.105469 889.988281 111.25 890.214844 111.382812 C 890.445312 111.515625 890.679688 111.636719 890.921875 111.742188 C 891.164062 111.84375 891.410156 111.933594 891.664062 112.007812 C 891.914062 112.085938 892.171875 112.144531 892.433594 112.1875 C 892.691406 112.230469 892.953125 112.257812 893.21875 112.273438 C 893.480469 112.285156 893.742188 112.28125 894.007812 112.261719 Z M 450.832031 230.925781 C 456.78125 228.808594 459.574219 226.308594 459.339844 222.921875 C 459.101562 219.535156 457.875 217 453.347656 217.777344 C 452.597656 218.675781 451.972656 219.65625 451.46875 220.710938 C 450.96875 221.769531 450.605469 222.875 450.386719 224.027344 C 450.167969 225.175781 450.09375 226.335938 450.167969 227.503906 C 450.246094 228.671875 450.464844 229.8125 450.832031 230.925781 Z M 809.617188 594.851562 C 806.644531 589.574219 805.765625 589.089844 797.507812 587.546875 C 797.226562 595.042969 798.566406 595.921875 809.617188 594.851562 Z M 862.75 423.835938 C 854.804688 418.765625 853.222656 418.585938 846.855469 422.539062 C 852.707031 422.566406 856.101562 430.023438 862.75 423.835938 Z M 919.105469 35.875 C 920.070312 34.554688 920.890625 33.152344 921.574219 31.664062 C 922.253906 30.179688 922.78125 28.640625 923.152344 27.046875 C 923.523438 25.453125 923.730469 23.839844 923.773438 22.207031 C 923.820312 20.574219 923.703125 18.949219 923.421875 17.339844 C 922.144531 23.125 915.183594 27.507812 919.105469 35.875 Z M 829.863281 105.703125 C 836.691406 98.703125 836.433594 92.296875 830.1875 89.492188 Z M 808.355469 175.398438 L 803.066406 168.808594 C 798.257812 172.546875 800.046875 176.902344 799.945312 181.386719 C 803.007812 179.210938 805.496094 177.4375 808.355469 175.398438 Z M 459.859375 903.195312 C 463.386719 909.777344 467.75 907.324219 472.515625 906.566406 L 469.867188 900.378906 Z M 1021.316406 101.277344 C 1020.269531 101.457031 1019.277344 101.796875 1018.34375 102.296875 C 1017.40625 102.792969 1016.570312 103.425781 1015.835938 104.191406 C 1015.101562 104.957031 1014.507812 105.820312 1014.046875 106.777344 C 1013.589844 107.734375 1013.292969 108.738281 1013.152344 109.789062 C 1019.828125 110.210938 1020.832031 106 1021.316406 101.277344 Z M 589.335938 707.113281 C 586.164062 706.621094 583.222656 705.4375 582.578125 706.199219 C 582.289062 706.503906 582.035156 706.835938 581.820312 707.195312 C 581.601562 707.554688 581.421875 707.929688 581.285156 708.328125 C 581.148438 708.722656 581.054688 709.128906 581 709.542969 C 580.949219 709.960938 580.941406 710.378906 580.980469 710.796875 C 581.015625 711.214844 581.09375 711.621094 581.21875 712.023438 C 581.339844 712.421875 581.503906 712.808594 581.710938 713.171875 C 581.914062 713.539062 582.15625 713.878906 582.429688 714.195312 C 582.707031 714.511719 583.015625 714.792969 583.351562 715.042969 C 585.167969 712.636719 586.695312 710.609375 589.308594 707.140625 Z M 885.890625 461.609375 L 889.679688 455.683594 L 878.402344 454.8125 C 877.324219 461.101562 883.101562 459.546875 885.863281 461.636719 Z M 782.601562 521.027344 L 780.816406 529.222656 C 782.429688 529.445312 784.710938 530.457031 785.539062 529.757812 C 788.609375 527.179688 787.148438 524.761719 782.601562 521.027344 Z M 553.96875 703.46875 C 549.796875 704.4375 547.269531 705.894531 548.574219 710.117188 C 548.839844 710.601562 549.203125 710.988281 549.671875 711.28125 C 550.136719 711.574219 550.644531 711.738281 551.195312 711.765625 C 555.40625 710.785156 555.792969 707.972656 553.96875 703.46875 Z M 796.46875 1.597656 C 790.613281 6.503906 790.613281 6.503906 793.394531 12.152344 C 794.664062 7.796875 795.5625 4.699219 796.46875 1.597656 Z M 833.378906 -16.527344 L 834.722656 -14.816406 C 841.109375 -16.402344 841.109375 -16.402344 844.269531 -24.050781 Z M 737.820312 726.996094 C 738.167969 726.980469 738.507812 726.925781 738.84375 726.832031 C 739.175781 726.738281 739.496094 726.605469 739.800781 726.4375 C 740.105469 726.269531 740.386719 726.070312 740.644531 725.835938 C 740.902344 725.605469 741.132812 725.34375 741.332031 725.058594 C 741.53125 724.773438 741.695312 724.472656 741.824219 724.148438 C 741.953125 723.824219 742.042969 723.492188 742.09375 723.148438 C 742.148438 722.804688 742.160156 722.460938 742.132812 722.113281 C 742.105469 721.765625 742.039062 721.429688 741.933594 721.097656 C 741.671875 720.609375 741.300781 720.21875 740.828125 719.929688 C 740.355469 719.640625 739.84375 719.484375 739.289062 719.46875 C 736.082031 720.535156 735.785156 722.972656 736.78125 725.832031 C 737.078125 726.265625 737.421875 726.652344 737.820312 726.996094 Z M 571.925781 710.898438 C 572.847656 705.234375 572.226562 702.53125 567.679688 702.570312 C 567.152344 702.574219 566.644531 703.671875 565.859375 704.5625 Z M 616.285156 565.347656 L 623.480469 569.445312 C 622.964844 562.707031 622.964844 562.707031 616.285156 565.347656 Z M 775.71875 720.507812 C 779.886719 725.746094 779.886719 725.746094 784.191406 723.050781 Z M 452.980469 442.925781 C 453.113281 442.53125 453.210938 442.128906 453.265625 441.714844 C 453.320312 441.300781 453.335938 440.886719 453.308594 440.472656 C 453.28125 440.054688 453.214844 439.648438 453.109375 439.246094 C 453 438.839844 452.855469 438.453125 452.671875 438.078125 C 452.488281 437.707031 452.269531 437.351562 452.019531 437.023438 C 451.765625 436.691406 451.480469 436.386719 451.167969 436.113281 C 450.855469 435.835938 450.519531 435.59375 450.160156 435.386719 C 449.800781 435.175781 449.421875 435.003906 449.027344 434.871094 C 448.886719 435.265625 448.789062 435.667969 448.730469 436.082031 C 448.671875 436.496094 448.652344 436.910156 448.679688 437.328125 C 448.703125 437.746094 448.769531 438.15625 448.875 438.5625 C 448.980469 438.964844 449.125 439.355469 449.308594 439.730469 C 449.492188 440.105469 449.714844 440.457031 449.96875 440.789062 C 450.222656 441.121094 450.507812 441.425781 450.824219 441.699219 C 451.136719 441.972656 451.476562 442.214844 451.839844 442.421875 C 452.203125 442.628906 452.582031 442.796875 452.980469 442.925781 Z M 363.691406 438.617188 L 367.546875 430.222656 C 360.640625 431.132812 361.085938 434.066406 363.691406 438.617188 Z M 806.796875 166.285156 L 808.769531 166.117188 L 808.285156 156.730469 C 805.234375 160.945312 805.511719 163.585938 806.796875 166.285156 Z M 977.082031 430.398438 C 982.167969 433.015625 982.167969 433.015625 984.660156 428.410156 Z M 1062.078125 71.765625 C 1060.804688 75.707031 1058.164062 77.8125 1061.625 80.761719 C 1064.726562 78.582031 1065.351562 76.386719 1062.078125 71.765625 Z M 827.96875 435.433594 L 821.09375 426.910156 C 822.214844 431.933594 820.367188 436.785156 827.96875 435.433594 Z M 554.398438 698.617188 C 552.023438 693.964844 552.023438 693.964844 547.464844 694.8125 Z M 960.882812 360.417969 L 961.214844 362.585938 C 963.773438 363.449219 966.359375 364.527344 968.714844 359.132812 Z M 792.289062 527.183594 L 791.351562 534.53125 C 796.574219 531.984375 796.574219 531.984375 792.277344 527.195312 Z M 807.726562 178.988281 L 804.277344 186.445312 C 808.445312 185.375 810.160156 183.15625 807.726562 178.988281 Z M 780.660156 20.207031 C 786.15625 18.988281 787.433594 17.304688 785.785156 11.746094 C 783.773438 15.066406 782.691406 16.863281 780.660156 20.207031 Z M 826.4375 548.261719 L 825.027344 551.128906 C 826.511719 551.921875 828.046875 552.59375 829.636719 553.140625 C 829.863281 553.207031 830.636719 551.328125 831.140625 550.367188 Z M 894.679688 462.925781 C 893.296875 462.097656 892.140625 460.976562 891.683594 461.210938 C 891.195312 461.480469 890.789062 461.839844 890.460938 462.289062 C 890.136719 462.742188 889.921875 463.242188 889.824219 463.789062 C 889.988281 464.261719 890.257812 464.664062 890.632812 464.996094 C 891.007812 465.328125 891.441406 465.546875 891.933594 465.652344 C 892.808594 465.492188 893.445312 464.269531 894.695312 462.941406 Z M 1054.25 77.296875 L 1050.8125 85.613281 C 1056.257812 83.921875 1057.136719 82.164062 1054.25 77.296875 Z M 189.574219 553.050781 L 186.851562 553.714844 L 188.847656 559.386719 L 190.839844 558.816406 Z M 765.972656 577.746094 C 766.339844 572.164062 766.339844 572.164062 761.695312 574.445312 Z M 950.90625 357.421875 C 949.453125 356.429688 948.632812 355.425781 947.894531 355.476562 C 947.15625 355.53125 946.324219 356.621094 945.539062 357.257812 C 946.199219 358.027344 946.792969 359.335938 947.53125 359.421875 C 948.269531 359.507812 949.257812 358.464844 950.90625 357.421875 Z M 741.617188 639.078125 L 743.496094 638.984375 C 744 636.761719 745.171875 634.402344 740.886719 631.636719 Z M 898.019531 438.144531 C 898.421875 442.824219 900.234375 443.566406 904.300781 440.953125 Z M 644.4375 794.554688 L 646.488281 793.945312 L 645.148438 788.992188 C 644.4375 789.351562 643.085938 789.816406 643.128906 790.03125 C 643.46875 791.566406 643.90625 793.074219 644.4375 794.554688 Z M 816.542969 125.230469 L 818.019531 125.347656 L 818.40625 120.390625 L 816.925781 120.289062 Z M 570.140625 601.066406 C 571.375 600.277344 572.683594 599.664062 572.621094 599.449219 C 572.175781 598.167969 571.632812 596.933594 570.984375 595.742188 C 570.265625 596.089844 568.894531 596.519531 568.90625 596.753906 C 569.203125 598.222656 569.613281 599.65625 570.144531 601.058594 Z M 888.609375 121.410156 C 891.082031 117.972656 890.785156 116.027344 885.925781 115.925781 Z M 443.472656 364.0625 L 445.332031 364.203125 L 445.742188 359.003906 L 443.882812 358.863281 Z M 669.800781 607.148438 L 668.996094 608.484375 L 673.03125 610.992188 L 673.90625 609.546875 Z M 1001.414062 437.117188 C 1000.558594 436.261719 999.8125 435.140625 999.414062 435.25 C 998.488281 435.675781 997.65625 436.246094 996.925781 436.957031 C 997.597656 437.449219 998.238281 438.273438 998.957031 438.335938 C 999.671875 438.402344 1000.371094 437.679688 1001.414062 437.117188 Z M 426.144531 352.605469 L 424.277344 352.339844 C 424.066406 353.351562 423.96875 354.375 423.980469 355.410156 C 424.003906 355.613281 425.34375 355.703125 426.09375 355.832031 Z M 869.679688 609.195312 L 869.023438 611.273438 L 873.730469 612.890625 L 874.40625 610.742188 Z M 862 31.738281 L 863.589844 31.515625 L 862.945312 27.546875 L 861.539062 27.742188 Z M 750.707031 96.90625 L 752.1875 96.996094 L 752.550781 92.5 L 751.058594 92.417969 Z M 790.71875 726.132812 L 792.265625 724.828125 L 788.589844 721.152344 L 787.574219 722.0625 Z M 908.371094 96.6875 L 906.433594 95.488281 L 904.582031 100.359375 L 906.089844 100.988281 Z M 812.3125 410.488281 C 812.097656 410.039062 811.945312 409.273438 811.65625 409.222656 C 811.160156 409.128906 810.578125 409.476562 810.03125 409.636719 C 810.238281 410.082031 810.394531 410.84375 810.667969 410.894531 C 811.179688 410.980469 811.757812 410.648438 812.3125 410.488281 Z M 775.339844 52.582031 L 773.097656 51.128906 L 771.023438 55.414062 L 772.722656 56.300781 Z M 478.246094 838.941406 C 477.945312 838.085938 477.835938 837.214844 477.566406 837.195312 C 476.765625 837.15625 475.972656 837.21875 475.183594 837.375 C 475.402344 837.875 475.511719 838.6875 475.875 838.824219 C 476.65625 838.988281 477.449219 839.027344 478.246094 838.941406 Z M 905.800781 110.414062 L 903.667969 110.890625 L 905.347656 116.582031 L 906.945312 116.203125 Z M 912.691406 40.238281 L 911.25 39.640625 L 909.773438 43.015625 C 910.28125 43.230469 910.804688 43.394531 911.339844 43.511719 C 911.863281 42.464844 912.238281 41.363281 912.691406 40.238281 Z M 521.484375 678.175781 C 520.730469 677.324219 520.265625 676.347656 519.65625 676.25 C 519.046875 676.15625 518.136719 676.796875 517.367188 677.117188 C 517.855469 678.023438 518.460938 678.84375 519.183594 679.574219 C 519.363281 679.71875 520.460938 678.789062 521.484375 678.175781 Z M 443.410156 411.253906 C 444.960938 411.894531 445.851562 412.625 446.402344 412.417969 C 447.386719 411.964844 448.171875 411.285156 448.757812 410.371094 C 448.910156 410.148438 447.78125 408.59375 447.609375 408.65625 C 446.136719 409.40625 444.738281 410.269531 443.410156 411.253906 Z M 509.667969 738.6875 C 508.664062 739.363281 507.648438 739.691406 507.527344 740.234375 C 507.402344 740.773438 508.113281 741.558594 508.460938 742.234375 C 509.144531 741.851562 510.113281 741.652344 510.363281 741.082031 C 510.613281 740.511719 510.015625 739.742188 509.667969 738.6875 Z M 509.667969 738.6875 " fill-opacity="1" fill-rule="nonzero"/></g></g></g><g clip-path="url(#id5)"><g clip-path="url(#id6)"><g clip-path="url(#id7)"><path fill="rgb(36.468506%, 0%, 29.798889%)" d="M 741.472656 158.109375 C 742.183594 152.492188 739.707031 147.984375 743.777344 143.226562 L 747.976562 154.0625 Z M 741.472656 158.109375 " fill-opacity="1" fill-rule="nonzero"/></g></g></g><g clip-path="url(#id8)"><g clip-path="url(#id9)"><g clip-path="url(#id10)"><path fill="rgb(36.468506%, 0%, 29.798889%)" d="M 971.160156 480.558594 L 973.503906 485.382812 L 972.199219 486.085938 L 969.449219 481.488281 Z M 971.160156 480.558594 " fill-opacity="1" fill-rule="nonzero"/></g></g></g></svg>